# Blender 4.3.0
# www.blender.org
mtllib Door 1.mtl
o Construcao_1.003
v -0.561459 -2.866447 1.575749
v -0.561459 -2.865347 -1.522999
v 0.561459 -2.892200 1.575751
v 0.561459 -2.891196 -1.522987
v -0.561459 0.994084 1.554787
v -0.561459 2.844800 0.322853
v -0.561459 1.801612 1.668562
v -0.561459 2.389024 1.270895
v -0.561459 2.749135 0.838249
v -0.561459 2.859937 -0.279255
v -0.561459 1.026101 -1.577042
v -0.561459 2.788269 -0.798001
v -0.561459 2.439945 -1.247463
v -0.561459 1.851229 -1.668560
v 0.561459 2.897428 0.324737
v 0.561459 1.025590 1.555208
v 0.561459 2.797662 0.839309
v 0.561459 2.432260 1.270891
v 0.561459 1.843500 1.668556
v 0.561459 1.044890 -1.577461
v 0.561459 2.906212 -0.280026
v 0.561459 1.873686 -1.668560
v 0.561459 2.462610 -1.247456
v 0.561459 2.820590 -0.798565
v 0.561459 -2.891907 1.082613
v 0.561459 -2.891201 -1.029857
v 0.561459 2.134333 0.210136
v 0.561459 0.874538 1.057241
v 0.561459 2.082680 0.561718
v 0.561459 1.842590 0.858124
v 0.561459 1.483890 1.061640
v 0.561459 0.887552 -1.082615
v 0.561459 2.138910 -0.203118
v 0.561459 1.501312 -1.074844
v 0.561459 1.859225 -0.860821
v 0.561459 2.094747 -0.556210
v -0.561459 -2.866132 1.082619
v -0.561459 -2.865353 -1.029861
v -0.561459 2.104150 0.210102
v -0.561459 0.848321 1.057249
v -0.561459 2.049225 0.561619
v -0.561459 1.808499 0.858127
v -0.561459 1.451173 1.061636
v -0.561459 0.870340 -1.082611
v -0.561459 2.112139 -0.203095
v -0.561459 1.480871 -1.074848
v -0.561459 1.837103 -0.860829
v -0.561459 2.070158 -0.556137
v 0.561459 -0.962822 1.365709
v -0.561459 -0.965793 1.359083
v 0.561459 -1.044609 0.935335
v -0.561459 -1.044986 0.935343
v -0.561459 -0.958032 -1.377281
v 0.561459 -0.957714 -1.378845
v 0.561459 -1.041170 -0.946495
v -0.561459 -1.039698 -0.946503
v 0.342747 1.461393 -1.189903
v 0.342747 0.934531 -1.267571
v 0.342747 1.910613 -0.966015
v 0.342747 1.440381 1.175939
v 0.342747 0.917415 1.243122
v 0.342747 1.889290 0.965422
v 0.342747 2.193023 0.638618
v 0.342747 2.303785 0.243511
v 0.342747 2.209100 -0.628220
v 0.342747 2.310091 -0.229092
v 0.342747 -2.906212 1.221565
v 0.342747 -2.905420 -1.168113
v -0.006090 -0.020683 0.751856
v -0.006090 0.185589 -0.760719
v -0.006090 0.643306 0.754196
v 0.443570 -0.015603 0.751852
v 0.443570 0.189916 -0.760723
v 0.443570 0.651274 0.754194
v 0.443570 0.814266 -0.788311
v -0.006090 0.808167 -0.788307
v -0.006090 -1.712126 0.764322
v -0.006090 -1.695261 -0.753822
v -0.006090 -1.092597 0.685833
v 0.443570 -1.715808 0.764320
v 0.443570 -1.699125 -0.753826
v 0.443570 -1.092975 0.685829
v 0.443570 -1.181800 -0.673626
v -0.006090 -1.180486 -0.673637
vn -0.0395 0.9971 -0.0651
vn -0.0395 0.9971 -0.0653
vn -0.0444 0.9936 0.1035
vn -0.0444 0.9937 0.1032
vn 1.0000 -0.0000 -0.0000
vn 0.0001 -0.0121 -0.9999
vn 0.0009 -0.1045 -0.9945
vn 0.0009 -0.1046 -0.9945
vn 0.0001 -0.0122 -0.9999
vn -0.0280 0.9181 -0.3953
vn -0.0279 0.9167 -0.3986
vn -0.0157 0.6917 -0.7220
vn -0.0157 0.6898 -0.7238
vn -0.0117 0.5817 -0.8133
vn 0.0018 -0.1097 -0.9940
vn -0.0392 0.9016 0.4308
vn -0.0394 0.9040 0.4257
vn -0.0266 0.6674 0.7443
vn -0.0268 0.6711 0.7409
vn -0.0212 0.5600 0.8282
vn 0.0043 -0.1384 0.9904
vn 0.0013 -0.1174 0.9931
vn 0.0014 -0.1181 0.9930
vn -0.0017 0.0067 1.0000
vn -0.0017 0.0070 1.0000
vn 0.0097 -0.5141 0.8577
vn 0.0134 -0.6663 0.7456
vn 0.0133 -0.6637 0.7479
vn 0.0241 -0.9983 0.0530
vn 0.0267 -0.9962 -0.0826
vn 0.0267 -0.9962 -0.0828
vn 0.0241 -0.9983 0.0531
vn 0.0194 -0.6486 -0.7609
vn 0.0147 -0.4941 -0.8693
vn 0.0193 -0.6444 -0.7644
vn -0.0001 0.0286 0.9996
vn 0.0002 -0.0127 0.9999
vn -0.0001 0.0295 0.9996
vn -0.0005 0.0127 0.9999
vn -0.0005 0.0128 0.9999
vn 0.0227 -0.9924 0.1211
vn -0.0002 0.0072 -1.0000
vn -0.0005 0.0351 -0.9994
vn -0.0005 0.0360 -0.9994
vn 0.0280 -0.9883 -0.1498
vn 0.0165 -0.7926 0.6095
vn -0.0008 -0.0081 -1.0000
vn -0.0009 -0.0800 -0.9968
vn 0.0234 -0.7765 -0.6297
vn -0.0018 0.1107 0.9938
vn -0.0006 -0.0453 0.9990
vn 0.0002 0.0753 -0.9972
vn 0.0104 -0.9908 -0.1349
vn 0.0001 -0.0035 1.0000
vn -0.0156 0.9943 0.1057
vn 0.0005 -0.0442 -0.9990
vn -0.0084 -0.9999 -0.0110
vn 0.0006 0.1254 0.9921
vn 0.0019 0.9979 -0.0649
vn 0.0009 0.1536 -0.9881
vt 0.107010 0.206580
vt 0.130084 0.206135
vt 0.130254 0.220461
vt 0.107146 0.220239
vt 0.081535 0.121269
vt 0.097775 0.160596
vt 0.084245 0.162243
vt 0.070181 0.122952
vt 0.105897 0.113505
vt 0.119758 0.152232
vt 0.107442 0.195568
vt 0.129359 0.193536
vt 0.106546 0.184682
vt 0.127789 0.181246
vt 0.104752 0.172613
vt 0.124925 0.166647
vt 0.129883 0.233179
vt 0.107557 0.231420
vt 0.128641 0.245787
vt 0.106640 0.242467
vt 0.125391 0.261164
vt 0.105458 0.254676
vt 0.120330 0.275445
vt 0.098271 0.267062
vt 0.082091 0.307533
vt 0.107062 0.315006
vt 0.088465 0.175806
vt 0.090700 0.186110
vt 0.091752 0.196853
vt 0.091793 0.207507
vt 0.070795 0.350880
vt 0.058486 0.346554
vt 0.070429 0.305982
vt 0.084468 0.265600
vt 0.088480 0.251700
vt 0.091561 0.219530
vt 0.091595 0.230251
vt 0.090518 0.241191
vt 0.062606 0.189565
vt 0.061219 0.180599
vt 0.063784 0.218735
vt 0.063944 0.207935
vt 0.060663 0.245923
vt 0.062256 0.237182
vt 0.058630 0.168991
vt 0.046386 0.130857
vt 0.063601 0.198611
vt 0.057642 0.258474
vt 0.063343 0.228113
vt 0.033574 0.339260
vt 0.045485 0.298574
vt 0.095700 0.357534
vt 0.057878 0.083696
vt 0.033574 0.091523
vt 0.093950 0.072247
vt 0.069783 0.079245
vt 0.363756 0.150387
vt 0.363492 0.160154
vt 0.325136 0.159117
vt 0.325400 0.149350
vt 0.326117 0.172319
vt 0.316374 0.173044
vt 0.315392 0.159841
vt 0.365129 0.172319
vt 0.365129 0.182090
vt 0.326117 0.182090
vt 0.373175 0.158851
vt 0.374812 0.171016
vt 0.485792 0.405897
vt 0.495390 0.406520
vt 0.492980 0.443631
vt 0.483382 0.443008
vt 0.506081 0.442804
vt 0.506687 0.452404
vt 0.493586 0.453231
vt 0.506081 0.409187
vt 0.515699 0.409187
vt 0.515699 0.442804
vt 0.497718 0.397188
vt 0.508409 0.399855
vt 0.478119 0.544940
vt 0.478119 0.604123
vt 0.468006 0.606080
vt 0.468006 0.542983
vt 0.486693 0.598549
vt 0.486693 0.550514
vt 0.492422 0.558855
vt 0.492422 0.590208
vt 0.494433 0.568695
vt 0.494433 0.580368
vt 0.388235 0.603703
vt 0.388235 0.545360
s 1
usemtl Material.020
f 21/1/1 10/2/2 6/3/3 15/4/4
f 54/5/5 20/6/5 32/7/5 55/8/5
f 53/9/6 11/10/7 20/6/8 54/5/9
f 10/2/2 21/1/1 24/11/10 12/12/11
f 12/12/11 24/11/10 23/13/12 13/14/13
f 13/14/13 23/13/12 22/15/14 14/16/14
f 14/16/15 22/15/15 20/6/8 11/10/7
f 15/4/4 6/3/3 9/17/16 17/18/17
f 17/18/17 9/17/16 8/19/18 18/20/19
f 18/20/19 8/19/18 7/21/20 19/22/20
f 19/22/21 7/21/21 5/23/22 16/24/23
f 49/25/24 16/24/23 5/23/22 50/26/25
f 20/6/5 22/15/5 34/27/5 32/7/5
f 22/15/5 23/13/5 35/28/5 34/27/5
f 23/13/5 24/11/5 36/29/5 35/28/5
f 24/11/5 21/1/5 33/30/5 36/29/5
f 49/25/5 3/31/5 25/32/5 51/33/5
f 19/22/5 16/24/5 28/34/5 31/35/5
f 21/1/5 15/4/5 27/36/5 33/30/5
f 15/4/5 17/18/5 29/37/5 27/36/5
f 18/20/5 19/22/5 31/35/5 30/38/5
f 17/18/5 18/20/5 30/38/5 29/37/5
f 34/27/26 35/28/27 47/39/28 46/40/26
f 33/30/29 27/36/30 39/41/31 45/42/32
f 30/38/33 31/35/34 43/43/34 42/44/35
f 32/7/36 34/27/37 46/40/37 44/45/38
f 55/8/39 32/7/36 44/45/38 56/46/40
f 36/29/41 33/30/29 45/42/32 48/47/41
f 31/35/42 28/34/43 40/48/44 43/43/42
f 27/36/30 29/37/45 41/49/45 39/41/31
f 35/28/27 36/29/46 48/47/46 47/39/28
f 51/33/47 25/32/48 37/50/48 52/51/47
f 29/37/49 30/38/33 42/44/35 41/49/49
f 28/34/43 51/33/47 52/51/47 40/48/44
f 16/24/5 49/25/5 51/33/5 28/34/5
f 3/31/50 49/25/24 50/26/25 1/52/50
f 26/53/51 55/8/39 56/46/40 38/54/51
f 2/55/52 53/9/6 54/5/9 4/56/52
f 4/56/5 54/5/5 55/8/5 26/53/5
f 70/57/53 73/58/53 72/59/53 69/60/53
f 72/59/54 74/61/54 71/62/54 69/63/54
f 73/58/5 75/64/5 74/61/5 72/59/5
f 75/64/55 76/65/55 71/66/55 74/61/55
f 70/67/56 76/68/56 75/64/56 73/58/56
f 78/69/57 81/70/57 80/71/57 77/72/57
f 80/71/58 82/73/58 79/74/58 77/75/58
f 81/70/5 83/76/5 82/73/5 80/71/5
f 83/76/59 84/77/59 79/78/59 82/73/59
f 78/79/60 84/80/60 83/76/60 81/70/60
f 57/81/5 60/82/5 61/83/5 58/84/5
f 62/85/5 60/82/5 57/81/5 59/86/5
f 59/86/5 65/87/5 63/88/5 62/85/5
f 63/88/5 65/87/5 66/89/5 64/90/5
f 58/84/5 61/83/5 67/91/5 68/92/5
