# Blender 4.3.0
# www.blender.org
mtllib Door 3.mtl
o Cube.002
v -0.310730 -3.484071 -3.658088
v 0.355835 1.210352 -4.170082
v 0.495943 1.249434 -0.361244
v -0.193262 -3.480639 -0.321369
v -0.193169 -3.480631 0.290978
v 0.496050 1.249468 0.341095
v 0.356766 1.210612 4.154655
v -0.309969 -3.484068 3.629040
v -0.143646 4.140055 -0.004616
v -0.393648 2.671038 5.258347
v 1.298700 4.128618 -0.008026
v -0.394567 2.670602 -5.260506
v 0.965538 2.677469 -5.257111
v -0.469599 2.383127 -6.151642
v 0.865723 2.393060 -6.147011
v -0.520584 1.716299 -6.123184
v 0.798388 1.728353 -6.118649
v -0.443466 1.994039 -5.240189
v -1.141220 -4.138482 -4.446643
v 0.900961 2.003801 -5.236866
v -0.010344 -4.136202 -4.444976
v 0.033127 -4.137599 -3.807525
v -0.208639 -4.138080 -3.807716
v 0.892664 1.456876 -4.470337
v 0.977234 2.204721 -4.500572
v 0.608280 1.454607 -4.470711
v 0.688549 2.202902 -4.500965
v 0.776953 1.500956 -0.010189
v -0.673634 1.445478 -4.473145
v 0.690907 1.765215 -3.721291
v 0.725582 2.091280 -3.731739
v 0.806969 1.765959 -3.721207
v 0.812046 1.799925 -0.009808
v 0.930792 1.800409 -0.010018
v 0.691826 1.765482 3.705673
v 0.726515 2.091570 3.717140
v 0.807909 1.766230 3.705051
v 0.609306 1.454890 4.455681
v -0.207834 -4.138095 3.777897
v 0.689604 2.203238 4.488491
v 0.893745 1.457159 4.454033
v -0.672869 1.445792 4.464531
v -0.547560 1.495378 -0.007729
v -1.298098 -4.140053 3.780335
v 0.033978 -4.137616 3.777474
v 0.978344 2.205050 4.486641
v 1.257915 3.384813 -0.008637
v 0.966763 2.677874 5.246571
v 0.902159 2.004168 5.224136
v 0.867025 2.393488 6.138130
v -0.468622 2.383585 6.151642
v 0.799654 1.728720 6.107307
v -0.519634 1.716692 6.119877
v -0.442564 1.994421 5.235107
v -1.140541 -4.138515 4.418347
v -0.009439 -4.136237 4.415371
v 0.954727 3.385637 -0.007996
v 0.917057 2.871416 -0.008541
v 1.038055 2.871424 -0.008782
v 0.843342 2.092211 3.716514
v 0.842392 2.091932 -3.731652
v -1.298700 -4.140042 -3.808983
v 0.547009 1.677336 -0.009514
v 0.369890 1.623694 4.716644
v 0.697758 1.677965 -0.009781
v 0.368877 1.623376 -4.729248
v 0.514330 1.624490 -4.728981
v -0.427170 -4.138135 -4.018833
v -0.303934 -4.137895 -4.018695
v -0.156399 -4.137388 -0.015503
v -0.184240 -3.483748 -3.657993
v -0.310730 -3.484071 -3.658088
v -0.063242 -3.480386 -0.321415
v 0.500957 1.211462 -4.169888
v 0.645241 1.250185 -0.361450
v 0.355835 1.210352 -4.170082
v 0.495943 1.249434 -0.361244
v -0.193262 -3.480639 -0.321369
v -0.303123 -4.137913 3.989121
v -0.063148 -3.480377 0.290898
v -0.193169 -3.480631 0.290978
v -0.183458 -3.483745 3.628788
v 0.645350 1.250219 0.340809
v 0.496050 1.249468 0.341095
v 0.501917 1.211726 4.153839
v 0.515373 1.624808 4.715645
v 0.356766 1.210612 4.154655
v -0.309969 -3.484068 3.629040
v -0.426380 -4.138157 3.989365
vn 0.9889 -0.1443 -0.0348
vn 0.9889 -0.1444 0.0346
vn 0.0030 0.9635 0.2676
vn -0.0002 0.9579 0.2871
vn -0.0015 0.9587 0.2844
vn 0.0016 0.9634 -0.2679
vn -0.0019 0.9578 -0.2875
vn -0.0019 0.9578 -0.2874
vn -0.0050 0.9523 -0.3053
vn 0.0038 -0.0430 -0.9991
vn 0.0069 -0.9544 0.2985
vn 0.0049 -0.9545 0.2982
vn 0.0021 -0.1303 -0.9915
vn 0.0026 -0.1285 -0.9917
vn 0.9860 -0.1443 -0.0831
vn 0.9834 -0.1592 -0.0868
vn 0.9903 -0.1131 -0.0807
vn 0.9916 -0.1007 -0.0815
vn 0.9936 -0.0897 -0.0681
vn -0.0018 0.0936 0.9956
vn -0.0019 0.1181 0.9930
vn -0.0017 0.1179 0.9930
vn -0.0017 0.0758 0.9971
vn -0.0016 0.0406 0.9992
vn -0.0021 0.1182 0.9930
vn 0.9901 -0.1327 -0.0461
vn 0.9913 -0.1185 -0.0566
vn 0.9936 -0.0963 -0.0592
vn 0.9959 -0.0747 -0.0509
vn 0.9887 -0.1497 -0.0001
vn 0.9887 -0.1497 -0.0002
vn 0.0056 -1.0000 0.0001
vn 0.0056 -1.0000 -0.0000
vn 0.0056 -0.9999 0.0106
vn 0.0009 -0.0321 -0.9995
vn 0.0052 -0.9999 0.0091
vn 0.0052 -1.0000 -0.0000
vn 0.0052 -0.9999 -0.0091
vn 0.9901 -0.1329 0.0458
vn 0.9913 -0.1187 0.0563
vn 0.9959 -0.0749 0.0506
vn 0.9936 -0.0965 0.0589
vn 0.0056 -0.0357 0.9993
vn -0.0054 0.0969 -0.9953
vn -0.0049 0.1213 -0.9926
vn -0.0053 0.1216 -0.9926
vn -0.0056 0.0792 -0.9968
vn -0.0045 0.1208 -0.9927
vn -0.0064 0.0444 -0.9990
vn 0.0056 -0.9999 -0.0105
vn 0.9860 -0.1445 0.0828
vn 0.9906 -0.1136 0.0767
vn 0.9834 -0.1594 0.0865
vn 0.0012 -1.0000 0.0004
vn 0.0005 -0.9672 -0.2541
vn 0.0012 -1.0000 -0.0002
vn 0.9950 -0.0795 0.0602
vn 0.9985 -0.0540 -0.0002
vn 0.9985 -0.0540 -0.0001
vn 0.9933 -0.0922 0.0699
vn -0.0031 0.9524 0.3048
vn 0.9916 -0.1010 0.0811
vn 0.0102 -0.0478 0.9988
vn 0.0052 -0.9545 -0.2981
vn 0.0043 -0.9550 -0.2967
vn 0.0045 -0.1329 0.9911
vn 0.0062 -0.1321 0.9912
vn 0.9950 -0.0793 -0.0605
vn 0.0017 -0.9671 0.2542
vn 0.9986 -0.0536 -0.0002
vn 0.9986 -0.0536 -0.0001
vn -0.0024 1.0000 0.0002
vn -0.0019 0.9788 0.2047
vn -0.0024 1.0000 -0.0003
vn -0.0028 0.9788 -0.2049
vn 0.9943 -0.1018 -0.0316
vn 0.9948 -0.1019 -0.0001
vn 0.9948 -0.1019 -0.0002
vn 0.9943 -0.1018 0.0313
vn -0.0059 1.0000 -0.0000
vn -0.0058 0.9999 0.0111
vn -0.0059 1.0000 -0.0001
vn -0.0059 0.9999 -0.0112
vn 0.0021 -0.1226 -0.9924
vn 0.9884 -0.1517 -0.0095
vn 0.9878 -0.1554 -0.0001
vn 0.9865 -0.1557 -0.0502
vn 0.9864 -0.1542 -0.0572
vn 0.9908 -0.1225 -0.0581
vn 0.9915 -0.1177 -0.0552
vn -0.0022 1.0000 -0.0009
vn -0.0016 0.1086 0.9941
vn 0.0063 -0.9999 0.0100
vn 0.9935 -0.1134 -0.0001
vn 0.9929 -0.1181 -0.0127
vn -0.0009 -0.0083 -1.0000
vn 0.9884 -0.1517 0.0092
vn 0.9864 -0.1543 0.0569
vn 0.9865 -0.1558 0.0499
vn 0.9929 -0.1181 0.0124
vn 0.0014 -0.0108 0.9999
vn -0.0022 1.0000 0.0009
vn 0.0063 -0.9999 -0.0099
vn 0.9915 -0.1178 0.0549
vn 0.9908 -0.1227 0.0578
vn -0.0045 0.1118 -0.9937
vn 0.0052 -0.1259 0.9920
vt 0.006589 0.987846
vt 0.006589 0.939246
vt 0.034599 0.939246
vt 0.034599 0.987846
vt 0.984725 0.533844
vt 0.956703 0.533844
vt 0.956703 0.485223
vt 0.984725 0.485223
vt 0.190476 0.484886
vt 0.250391 0.484886
vt 0.250391 0.493004
vt 0.190476 0.493004
vt 0.130561 0.493004
vt 0.130561 0.484886
vt 0.119650 0.493005
vt 0.119650 0.484886
vt 0.109881 0.493005
vt 0.109881 0.484886
vt 0.098970 0.484887
vt 0.098970 0.493005
vt 0.004958 0.493005
vt 0.004958 0.484887
vt 0.902035 0.793800
vt 0.961047 0.793831
vt 0.961047 0.799572
vt 0.896317 0.799535
vt 0.898891 0.806593
vt 0.892165 0.806588
vt 0.889591 0.799530
vt 0.016384 0.136471
vt 0.016384 0.082586
vt 0.018722 0.082586
vt 0.018722 0.136471
vt 0.016384 0.143379
vt 0.018722 0.143379
vt 0.005830 0.136471
vt 0.005830 0.082586
vt 0.441360 0.942270
vt 0.444620 0.948566
vt 0.436437 0.948562
vt 0.437814 0.942268
vt 0.441360 0.912460
vt 0.444620 0.912460
vt 0.457122 0.912460
vt 0.457122 0.948566
vt 0.240788 0.166930
vt 0.240787 0.168025
vt 0.237298 0.168023
vt 0.237298 0.166928
vt 0.236203 0.168023
vt 0.237298 0.197355
vt 0.236203 0.197354
vt 0.236203 0.226686
vt 0.237298 0.226686
vt 0.441360 0.882650
vt 0.444620 0.876354
vt 0.437814 0.882652
vt 0.436437 0.876359
vt 0.240788 0.227779
vt 0.237298 0.227781
vt 0.240787 0.226684
vt 0.016384 0.214460
vt 0.016384 0.268344
vt 0.005830 0.268344
vt 0.005830 0.214460
vt 0.018722 0.214460
vt 0.018722 0.268344
vt 0.016384 0.207551
vt 0.018722 0.207551
vt 0.457122 0.876354
vt 0.902035 0.727037
vt 0.896317 0.721302
vt 0.961047 0.721265
vt 0.961047 0.727006
vt 0.018722 0.175465
vt 0.016384 0.175465
vt 0.894470 0.727040
vt 0.883484 0.760418
vt 0.876471 0.760418
vt 0.889591 0.721307
vt 0.261303 0.484886
vt 0.261303 0.493005
vt 0.892165 0.714248
vt 0.898891 0.714243
vt 0.271071 0.484886
vt 0.271071 0.493005
vt 0.281983 0.484887
vt 0.281983 0.493005
vt 0.375994 0.484887
vt 0.375994 0.493005
vt 0.894470 0.793796
vt 0.429909 0.912460
vt 0.424555 0.912460
vt 0.249623 0.197635
vt 0.241845 0.226965
vt 0.248565 0.197354
vt 0.249623 0.197074
vt 0.241845 0.167744
vt 0.529483 0.909929
vt 0.529483 0.875682
vt 0.530753 0.875682
vt 0.530753 0.909929
vt 0.530753 0.944176
vt 0.529483 0.944176
vt 0.530753 0.945446
vt 0.589734 0.944176
vt 0.589734 0.945446
vt 0.583035 0.912450
vt 0.589734 0.909929
vt 0.583035 0.940162
vt 0.534953 0.940162
vt 0.006589 0.937962
vt 0.034599 0.937962
vt 0.035883 0.939246
vt 0.035883 0.987846
vt 0.034599 0.989130
vt 0.006589 0.989130
vt 0.534953 0.912450
vt 0.005305 0.987846
vt 0.005305 0.939246
vt 0.583035 0.907408
vt 0.583035 0.879696
vt 0.589734 0.875682
vt 0.534953 0.907408
vt 0.986010 0.485223
vt 0.986010 0.533844
vt 0.956703 0.483939
vt 0.984725 0.483939
vt 0.984725 0.535129
vt 0.956703 0.535129
vt 0.534953 0.879696
vt 0.955418 0.533844
vt 0.955418 0.485223
vt 0.530753 0.874411
vt 0.589734 0.874411
s 1
usemtl Material.001
f 3/1/1 4/2/1 1/3/1 2/4/1
f 6/5/2 7/6/2 8/7/2 5/8/2
f 9/9/3 10/10/4 48/11/5 11/12/3
f 9/9/6 11/12/6 13/13/7 12/14/8
f 13/13/7 15/15/9 14/16/9 12/14/8
f 14/16/10 15/15/10 17/17/10 16/18/10
f 18/19/11 16/18/11 17/17/11 20/20/12
f 20/20/13 21/21/14 19/22/14 18/19/14
f 24/23/15 22/24/16 21/25/16 20/26/17
f 20/26/17 17/27/18 15/28/18 13/29/19
f 26/30/20 23/31/21 22/32/22 24/33/23
f 27/34/24 26/30/20 24/33/23 25/35/24
f 26/30/20 29/36/25 62/37/25 23/31/21
f 30/38/26 26/39/27 27/40/28 31/41/29
f 33/42/30 28/43/31 26/39/27 30/38/26
f 28/43/32 43/44/33 29/45/34 26/39/34
f 31/46/35 61/47/35 32/48/35 30/49/35
f 30/50/36 32/48/36 34/51/37 33/52/37
f 35/53/38 33/52/37 34/51/37 37/54/38
f 33/42/30 35/55/39 38/56/40 28/43/31
f 35/55/39 36/57/41 40/58/42 38/56/40
f 36/59/43 35/60/43 37/54/43 60/61/43
f 38/62/44 39/63/45 44/64/46 42/65/46
f 38/62/44 41/66/47 45/67/48 39/63/45
f 40/68/49 46/69/49 41/66/47 38/62/44
f 28/43/32 38/56/50 42/70/50 43/44/33
f 41/71/51 49/72/52 56/73/53 45/74/53
f 47/75/54 46/69/55 40/68/55 57/76/56
f 46/77/57 47/78/58 11/79/59 48/80/60
f 48/11/5 10/10/4 51/81/61 50/82/61
f 49/72/52 48/80/60 50/83/62 52/84/62
f 51/81/63 53/85/63 52/86/63 50/82/63
f 54/87/64 49/88/65 52/86/64 53/85/64
f 49/88/66 54/87/67 55/89/67 56/90/67
f 25/91/68 13/29/19 11/79/59 47/78/58
f 47/75/54 57/76/56 27/34/69 25/35/69
f 36/57/41 58/92/70 57/93/71 40/58/42
f 31/41/29 27/40/28 57/93/71 58/92/70
f 58/94/72 36/95/73 60/61/73 59/96/74
f 58/97/72 59/96/74 61/47/75 31/98/75
f 61/47/76 59/96/77 34/51/78 32/48/76
f 60/61/79 37/54/79 34/51/78 59/96/77
f 46/77/57 48/80/60 49/72/52 41/71/51
f 25/91/68 24/23/15 20/26/17 13/29/19
f 63/99/80 64/100/81 86/101/81 65/102/82
f 63/99/80 65/102/82 67/103/83 66/104/83
f 66/105/84 67/103/84 69/106/84 68/107/84
f 73/108/85 70/109/86 69/106/87 71/110/88
f 71/110/88 69/106/87 67/103/89 74/111/90
f 78/2/91 73/112/91 71/113/91 72/3/91
f 72/3/92 71/114/92 74/115/92 76/4/92
f 76/4/93 74/116/93 75/117/93 77/1/93
f 74/111/90 67/103/89 65/102/94 75/118/95
f 77/1/96 75/119/96 73/120/96 78/2/96
f 75/118/95 65/102/94 70/109/86 73/108/85
f 80/121/97 82/122/98 79/123/99 70/109/86
f 83/124/100 80/121/97 70/109/86 65/102/94
f 84/5/101 81/8/101 80/125/101 83/126/101
f 81/8/102 88/7/102 82/127/102 80/128/102
f 87/6/103 84/5/103 83/129/103 85/130/103
f 85/131/104 83/124/100 65/102/94 86/101/105
f 82/122/98 85/131/104 86/101/105 79/123/99
f 88/7/106 87/6/106 85/132/106 82/133/106
f 64/134/107 89/135/107 79/123/107 86/101/107
