# Blender 4.3.0
# www.blender.org
mtllib Fence 1.mtl
o Construcao_2.005
v 0.504551 -2.022591 3.712605
v 0.508255 -2.024824 3.260357
v 0.353831 -0.752436 3.527647
v 0.155703 -2.022592 3.711987
v 0.016045 -0.752538 3.527224
v 0.162607 -2.024823 3.259670
v 0.018645 -0.755191 3.046003
v 0.114580 -0.755157 3.046143
v 0.255980 -0.755115 3.046341
v -0.058409 0.520125 2.911646
v 0.072128 -0.761117 0.968996
v -0.138083 0.514622 0.791824
v 0.205574 -0.761077 0.969261
v 0.035841 -0.761701 -1.055325
v -0.214106 0.514691 -1.228111
v 0.159616 -0.761661 -1.055031
v 0.075277 -0.761659 -3.142902
v -0.001501 -0.761690 -3.143116
v 0.187971 -0.761620 -3.142595
v -0.215944 0.515504 -3.267555
v 0.271927 -2.030980 -2.786633
v 0.297430 -2.031037 -3.252337
v 0.553093 -2.030978 -2.785614
v 0.573181 -2.031035 -3.251316
v 0.264816 -0.761598 -3.142395
v -0.027308 0.515711 -3.267151
v 0.275370 -0.761588 -3.600208
v -0.024643 0.515879 -3.712029
v 0.014501 -0.761682 -3.600929
v -0.284802 0.515583 -3.712605
v -0.521925 1.686358 -3.564919
v -0.292351 0.515413 -3.267723
v -0.523552 1.685966 -3.135900
v -0.573176 2.028002 -3.063845
v -0.443354 1.686268 -3.135736
v -0.414766 1.684402 -1.170227
v -0.325648 1.686699 -3.135498
v -0.288710 1.684839 -1.170002
v -0.245411 1.686981 -3.135338
v -0.103792 0.515629 -3.267315
v -0.289219 2.029435 -3.063274
v -0.292422 2.029891 -3.487328
v -0.247616 1.687369 -3.564350
v -0.572895 2.028464 -3.487898
v -0.091787 0.514823 -1.227882
v -0.006250 0.514754 0.792027
v -0.179844 1.683778 0.792681
v 0.082049 0.520262 2.911797
v 0.178082 0.520350 2.911896
v -0.059259 1.687681 2.882790
v 0.038980 1.687976 2.882885
v -0.203102 1.687232 2.882645
v 0.011749 2.029194 2.889303
v 0.034422 2.031036 3.379768
v -0.331770 2.027711 2.888956
v -0.314058 2.029547 3.379459
v -0.300829 1.686913 2.882544
v -0.153747 0.520025 2.911541
v -0.285913 1.688955 3.375990
v -0.148449 0.522607 3.407368
v 0.058750 1.690026 3.376295
v 0.187761 0.522935 3.407684
v -0.314655 1.683335 0.792484
v 0.352657 -0.755091 3.046474
vn 0.9928 0.1201 0.0021
vn 0.9920 0.1261 -0.0054
vn 0.9921 0.1252 -0.0043
vn -0.0014 0.1207 0.9927
vn -0.0013 0.1168 0.9932
vn -0.0015 0.1439 0.9896
vn -0.9936 -0.1125 -0.0095
vn -0.9927 -0.1209 -0.0035
vn -0.9925 -0.1223 -0.0025
vn 0.0015 -0.1658 -0.9862
vn 0.0014 -0.1329 -0.9911
vn 0.0015 -0.1467 -0.9892
vn 0.0018 -0.1658 -0.9862
vn 0.0015 -0.1444 -0.9895
vn 0.0012 -0.0615 -0.9981
vn 0.0012 -0.0680 -0.9977
vn 0.0003 -1.0000 0.0016
vn 0.0003 -1.0000 0.0029
vn -0.9874 -0.1543 0.0363
vn -0.9870 -0.1581 0.0283
vn -0.9890 -0.1450 0.0292
vn -0.9894 -0.1405 0.0369
vn -0.9832 -0.1816 0.0163
vn -0.9818 -0.1896 0.0107
vn 0.0003 -1.0000 0.0001
vn -0.9809 -0.1945 -0.0008
vn -0.9780 -0.2083 -0.0090
vn 0.0003 -1.0000 -0.0000
vn -0.0029 0.2185 0.9758
vn -0.0022 0.0057 1.0000
vn -0.0021 -0.0219 0.9998
vn -0.0027 0.1721 0.9851
vn -0.0033 0.2698 0.9629
vn -0.0028 0.2077 0.9782
vn -0.9733 -0.2254 -0.0437
vn -0.9734 -0.2263 -0.0355
vn -0.9734 -0.2265 -0.0336
vn 0.9719 0.2333 0.0322
vn 0.9730 0.2298 0.0223
vn 0.9728 0.2305 0.0242
vn -0.0032 0.2698 0.9629
vn -0.0025 0.1963 0.9806
vn -0.0022 0.0055 1.0000
vn -0.0021 -0.0216 0.9998
vn 0.9785 0.2063 0.0076
vn 0.9785 0.2059 0.0074
vn 0.0028 -0.1636 -0.9865
vn 0.0029 -0.1890 -0.9820
vn 0.0032 -0.2642 -0.9645
vn 0.0021 0.0341 -0.9994
vn 0.0022 0.0057 -1.0000
vn -0.9773 -0.2110 -0.0179
vn -0.9772 -0.2114 -0.0180
vn 0.0014 0.1779 -0.9841
vn 0.0015 0.1683 -0.9857
vn -0.9858 -0.1676 -0.0060
vn -0.9849 -0.1728 -0.0068
vn -0.0014 -0.1727 0.9850
vn -0.0015 -0.1644 0.9864
vn -0.9894 -0.1450 -0.0024
vn -0.0010 -0.2062 0.9785
vn -0.0013 -0.1775 0.9841
vn -0.0036 1.0000 0.0010
vn -0.0035 1.0000 0.0009
vn -0.9836 -0.1805 0.0074
vn -0.9851 -0.1701 0.0260
vn 0.9812 0.1928 -0.0040
vn 0.9841 0.1770 -0.0119
vn 0.9855 0.1670 -0.0305
vn 0.9834 0.1802 -0.0210
vn -0.0015 -0.1549 0.9879
vn 0.9870 0.1604 -0.0024
vn 0.9915 0.1296 -0.0062
vn 0.9880 0.1547 -0.0031
vn -0.0051 1.0000 0.0011
vn 0.0010 0.2197 -0.9756
vn 0.9780 0.2085 0.0039
vn 0.9817 0.1900 -0.0156
vn 0.9874 0.1532 -0.0406
vn 0.9868 0.1586 -0.0326
vn 0.9882 0.1452 -0.0488
vn 0.9894 0.1394 -0.0409
vn 0.9888 0.1455 -0.0331
vn 0.9899 0.1328 -0.0494
vn 0.0010 0.0051 -1.0000
vn 0.0010 -0.0042 -1.0000
vn 0.0013 -0.1379 -0.9904
vn 0.0009 0.0189 -0.9998
vn -0.0033 1.0000 -0.0005
vn -0.0033 1.0000 -0.0004
vn -0.0032 1.0000 -0.0017
vn 0.0010 0.0036 -1.0000
vn 0.9948 0.0946 -0.0367
vn 0.9962 0.0759 -0.0433
vn 0.9948 0.0947 -0.0367
vn -0.0043 1.0000 -0.0036
vn -0.9942 -0.1038 0.0271
vn -0.9957 -0.0868 0.0334
vn -0.9942 -0.1037 0.0271
vn 0.0010 -0.0014 -1.0000
vn -0.9920 -0.1257 0.0118
vn -0.9920 -0.1254 0.0125
vn -0.0009 -0.0103 0.9999
vn -0.0009 0.0071 1.0000
vn -0.0009 0.0093 1.0000
vn -0.0011 0.0576 0.9983
vn -0.0011 0.0627 0.9980
vn 0.9923 0.1219 -0.0213
vn 0.9922 0.1226 -0.0206
vn -0.9880 -0.1479 0.0444
vn -0.9897 -0.1356 0.0453
vt 0.710283 0.281068
vt 0.710283 0.298113
vt 0.704536 0.298113
vt 0.704536 0.281068
vt 0.698789 0.298113
vt 0.698789 0.281068
vt 0.693042 0.298113
vt 0.693042 0.281068
vt 0.716030 0.281068
vt 0.716030 0.298113
vt 0.714373 0.298113
vt 0.711940 0.298113
vt 0.716029 0.315870
vt 0.714373 0.315870
vt 0.250910 0.928601
vt 0.250910 0.926106
vt 0.277834 0.926106
vt 0.277834 0.928601
vt 0.250910 0.871262
vt 0.250910 0.853055
vt 0.277834 0.853055
vt 0.277834 0.871262
vt 0.223985 0.871262
vt 0.223985 0.853055
vt 0.223985 0.928601
vt 0.223985 0.926106
vt 0.197060 0.871262
vt 0.197060 0.853055
vt 0.197060 0.928601
vt 0.197060 0.926106
vt 0.852590 0.931022
vt 0.852589 0.947731
vt 0.851030 0.947731
vt 0.851030 0.931022
vt 0.851030 0.914983
vt 0.856438 0.914983
vt 0.854879 0.931022
vt 0.872661 0.914983
vt 0.872661 0.931022
vt 0.867253 0.931022
vt 0.867253 0.914983
vt 0.861846 0.914983
vt 0.861846 0.931022
vt 0.856438 0.931022
vt 0.856438 0.947731
vt 0.854879 0.947731
vt 0.861846 0.947731
vt 0.867253 0.947731
vt 0.872661 0.947731
vt 0.867253 0.963399
vt 0.861846 0.963399
vt 0.872661 0.963399
vt 0.852589 0.963399
vt 0.851030 0.963399
vt 0.872661 0.967945
vt 0.867253 0.967945
vt 0.851030 0.967945
vt 0.854879 0.963399
vt 0.856438 0.967945
vt 0.197060 0.890828
vt 0.197060 0.888333
vt 0.223985 0.888333
vt 0.223985 0.890828
vt 0.197060 0.907900
vt 0.223985 0.907900
vt 0.856438 0.963399
vt 0.861846 0.967945
vt 0.856438 0.973353
vt 0.851030 0.973353
vt 0.250910 0.907900
vt 0.250910 0.890828
vt 0.277834 0.907900
vt 0.277834 0.890828
vt 0.711940 0.315870
vt 0.711940 0.332520
vt 0.710283 0.332520
vt 0.710283 0.315870
vt 0.710283 0.337351
vt 0.250910 0.888333
vt 0.277834 0.888333
vt 0.714373 0.332520
vt 0.716030 0.337351
vt 0.704536 0.337351
vt 0.704536 0.332520
vt 0.716030 0.343098
vt 0.710283 0.343098
vt 0.698789 0.332519
vt 0.698789 0.337351
vt 0.693042 0.337351
vt 0.693042 0.332520
vt 0.716030 0.332520
vt 0.698789 0.315870
vt 0.693042 0.315870
vt 0.704536 0.315870
s 1
usemtl Material.019
f 2/1/1 64/2/2 3/3/3 1/4/1
f 3/3/4 5/5/5 4/6/6 1/4/6
f 4/6/7 5/5/8 7/7/9 6/8/7
f 6/9/10 7/10/11 8/11/12
f 6/9/13 8/11/12 9/12/14 2/1/13
f 7/10/11 58/13/15 10/14/16 8/11/12
f 11/15/17 13/16/17 9/17/18 8/18/18
f 12/19/19 11/20/20 8/21/21 10/22/22
f 15/23/23 14/24/24 11/20/20 12/19/19
f 14/25/25 16/26/25 13/16/17 11/15/17
f 20/27/26 17/28/27 14/24/24 15/23/23
f 17/29/28 19/30/28 16/26/25 14/25/25
f 17/31/29 20/32/30 32/33/31 18/34/32
f 21/35/33 17/31/29 18/34/32
f 23/36/33 19/37/34 17/31/29 21/35/33
f 21/38/35 18/39/36 29/40/37 22/41/35
f 24/42/38 27/43/39 25/44/40 23/36/38
f 23/36/41 25/44/42 19/37/34
f 25/44/42 26/45/43 40/46/44 19/37/34
f 27/43/39 28/47/45 26/45/46 25/44/40
f 29/40/47 27/43/48 24/42/49 22/41/49
f 30/48/50 28/47/51 27/43/48 29/40/47
f 18/39/36 32/49/52 30/48/53 29/40/37
f 31/50/54 43/51/55 28/47/51 30/48/50
f 32/49/52 33/52/56 31/50/57 30/48/53
f 20/32/30 35/53/58 33/54/59 32/33/31
f 33/52/56 34/55/60 44/56/60 31/50/57
f 35/53/58 34/57/61 33/54/59
f 37/58/62 41/59/61 34/57/61 35/53/58
f 37/60/63 35/61/63 36/62/64 38/63/64
f 35/61/65 20/27/26 15/23/23 36/62/66
f 40/64/67 37/60/68 38/63/69 45/65/70
f 39/66/71 41/59/61 37/58/62
f 26/45/43 39/66/71 37/58/62 40/46/44
f 43/51/72 42/67/73 41/59/73 39/66/74
f 34/57/75 41/59/75 42/68/75 44/69/75
f 44/56/76 42/67/76 43/51/55 31/50/54
f 28/47/45 43/51/72 39/66/74 26/45/46
f 19/30/77 40/64/67 45/65/70 16/26/78
f 16/26/78 45/65/70 46/70/79 13/16/80
f 45/65/70 38/63/69 47/71/81 46/70/79
f 13/16/80 46/70/79 48/72/82 9/17/83
f 46/70/79 47/71/81 50/73/84 48/72/82
f 48/74/15 50/75/85 51/76/86 49/77/16
f 9/12/14 48/74/15 49/77/16 64/2/87
f 50/75/85 53/78/88 51/76/86
f 47/71/89 63/79/90 52/80/91 50/73/91
f 52/81/92 55/82/88 53/78/88 50/75/85
f 51/76/93 53/78/94 54/83/94 61/84/95
f 56/85/96 54/86/96 53/78/96 55/82/96
f 59/87/97 56/88/98 55/89/98 57/90/99
f 57/91/100 55/82/88 52/81/92
f 58/13/15 57/91/100 52/81/92 10/14/16
f 60/92/101 59/87/97 57/90/99 58/93/102
f 54/83/103 56/88/103 59/87/104 61/84/105
f 61/84/105 59/87/104 60/92/106 62/94/107
f 49/77/108 51/76/93 61/84/95 62/94/109
f 62/94/107 60/92/106 5/5/5 3/3/4
f 64/2/2 49/77/108 62/94/109 3/3/3
f 5/5/8 60/92/101 58/93/102 7/7/9
f 63/79/110 12/19/19 10/22/22 52/80/111
f 38/63/64 36/62/64 63/79/90 47/71/89
f 36/62/66 15/23/23 12/19/19 63/79/110
f 2/1/13 9/12/14 64/2/87
