# Blender 4.3.0
# www.blender.org
mtllib Metal Roof Detail.mtl
o Cube.004
v -0.556772 3.471832 -0.030522
v -0.136310 -0.266743 -0.025536
v -0.588784 -2.058219 10.517517
v -0.867494 3.044014 -0.029370
v -0.589237 -2.059106 -10.522423
v 0.493765 -2.159608 -10.505566
v -0.277757 -3.670449 -8.912231
v -0.628366 -1.354058 -10.408749
v -0.920025 -2.074643 -10.535805
v -0.957214 -1.323449 -10.415199
v -0.913167 3.724911 -0.030358
v -0.956854 -1.322616 10.409935
v -0.570971 3.662125 -0.030773
v 0.538190 3.425297 -0.032017
v -0.627945 -1.353221 10.399216
v 0.441976 -1.468341 10.369797
v 0.494424 -2.158729 10.486526
v 0.773372 -1.507754 10.362213
v 0.880659 3.343952 -0.032372
v 0.833320 -2.233974 10.485458
v 0.957214 2.684059 -0.031735
v 0.557652 3.238586 -0.031830
v 0.832599 -2.234860 -10.508327
v 0.772703 -1.508595 -10.388603
v 0.441363 -1.469174 -10.392406
v 0.851695 -0.391392 -0.027618
v 0.658219 -3.724078 8.883263
v 0.657198 -3.724911 -8.902412
v -0.276989 -3.669593 8.904648
v -0.919636 -2.073749 10.535805
vn -0.9931 -0.1170 0.0001
vn -0.9912 -0.1169 -0.0624
vn -0.9931 -0.1170 0.0002
vn -0.9912 -0.1167 0.0627
vn 0.5171 -0.7651 -0.3838
vn 0.5198 -0.7627 0.3847
vn -0.0456 -0.7138 -0.6989
vn 0.0324 0.1615 -0.9863
vn 0.0325 0.1613 -0.9864
vn 0.0309 0.1637 -0.9860
vn 0.0302 0.1632 -0.9861
vn 0.0333 0.1605 -0.9865
vn -0.9982 -0.0607 0.0001
vn -0.9976 -0.0606 0.0341
vn 0.1375 0.8920 -0.4306
vn 0.1281 0.8922 -0.4331
vn 0.1371 0.8922 -0.4304
vn 0.1417 0.8924 0.4284
vn 0.1403 0.8926 0.4285
vn 0.1314 0.8927 0.4311
vn -0.9976 -0.0608 -0.0340
vn 0.1580 0.8923 0.4228
vn 0.1571 0.8925 0.4229
vn 0.1541 0.8922 -0.4246
vn 0.1544 0.8920 -0.4247
vn 0.0458 0.1682 0.9847
vn 0.0436 0.1694 0.9846
vn 0.0427 0.1696 0.9846
vn 0.0454 0.1683 0.9847
vn 0.0471 0.1676 0.9847
vn 0.1649 0.8925 0.4198
vn 0.0418 0.1701 0.9845
vn 0.9929 0.1031 0.0591
vn 0.9947 0.1031 -0.0001
vn -0.6071 -0.7110 -0.3548
vn -0.6071 -0.7113 -0.3542
vn -0.6057 -0.7121 0.3551
vn -0.6057 -0.7117 0.3559
vn 0.9929 0.1028 -0.0593
vn 0.0297 0.1644 -0.9859
vn 0.1621 0.8923 -0.4214
vn 0.9973 0.0735 -0.0001
vn 0.9963 0.0731 0.0458
vn 0.9962 0.0736 0.0462
vn 0.9962 0.0734 -0.0464
vn -0.0367 -0.7137 0.6995
vn -0.0371 -0.7136 0.6996
vn -0.0881 -0.9308 0.3547
vn -0.0910 -0.9311 -0.3532
vt 0.640453 0.290405
vt 0.725391 0.293745
vt 0.742085 0.318639
vt 0.640228 0.315884
vt 0.538337 0.316836
vt 0.555469 0.292241
vt 0.742143 0.321672
vt 0.640183 0.320886
vt 0.538225 0.319868
vt 0.534474 0.327721
vt 0.534259 0.339916
vt 0.509328 0.338292
vt 0.509502 0.328464
vt 0.539722 0.327798
vt 0.539688 0.339939
vt 0.534248 0.324027
vt 0.539774 0.324155
vt 0.640139 0.325872
vt 0.640108 0.329348
vt 0.740507 0.329575
vt 0.740519 0.325932
vt 0.740325 0.341715
vt 0.640012 0.340204
vt 0.745755 0.329591
vt 0.745754 0.341788
vt 0.746047 0.325901
vt 0.740259 0.345669
vt 0.639982 0.343677
vt 0.746081 0.345672
vt 0.741795 0.349955
vt 0.639938 0.348660
vt 0.741675 0.352982
vt 0.639893 0.353658
vt 0.538140 0.351181
vt 0.538073 0.348152
vt 0.539684 0.343894
vt 0.533863 0.343794
vt 0.639668 0.379114
vt 0.724504 0.377493
vt 0.554874 0.375992
vt 0.770710 0.330775
vt 0.770710 0.340605
s 1
usemtl Material.001
f 2/1/1 29/2/2 3/3/2 1/4/3
f 2/1/1 1/4/3 5/5/4 7/6/4
f 1/4/5 3/3/5 30/7/5 4/8/5
f 1/4/6 4/8/6 9/9/6 5/5/6
f 5/10/7 6/11/7 28/12/7 7/13/7
f 5/10/8 8/14/9 25/15/10 6/11/11
f 5/10/8 9/16/12 10/17/12 8/14/9
f 4/8/13 11/18/13 10/17/14 9/9/14
f 8/14/15 10/17/16 11/18/16 13/19/17
f 15/20/18 13/19/19 11/18/20 12/21/20
f 4/8/13 30/7/21 12/21/21 11/18/13
f 13/19/19 15/20/18 16/22/22 14/23/23
f 13/19/17 14/23/24 25/15/25 8/14/15
f 3/24/26 17/25/27 16/22/28 15/20/29
f 3/24/26 15/20/29 12/21/30 30/26/30
f 14/23/23 16/22/22 18/27/31 19/28/31
f 16/22/28 17/25/27 20/29/32 18/27/32
f 20/30/33 21/31/34 19/28/34 18/27/33
f 17/32/35 22/33/36 21/31/36 20/30/36
f 6/34/37 23/35/38 21/31/38 22/33/38
f 23/35/39 24/36/39 19/28/34 21/31/34
f 25/15/10 24/36/40 23/37/40 6/11/11
f 14/23/24 19/28/41 24/36/41 25/15/25
f 26/38/42 22/33/42 17/32/43 27/39/44
f 26/38/42 28/40/45 6/34/45 22/33/42
f 3/24/46 29/41/46 27/42/46 17/25/47
f 28/40/48 26/38/48 2/1/48 7/6/48
f 26/38/49 27/39/49 29/2/49 2/1/49
