# Blender 4.3.0
# www.blender.org
mtllib Metal Roof 3.mtl
o Cube.009
v -6.948471 0.225625 10.879078
v -5.276217 -1.664462 9.118176
v 7.742208 0.517300 9.719654
v -8.091877 0.491806 5.684601
v -6.975519 1.004063 10.793591
v 7.772267 1.377084 9.640881
v -8.105623 1.266034 5.570534
v -8.690209 1.349457 -0.076653
v 8.385011 1.602799 4.866867
v 8.690209 1.665253 -0.125961
v 8.350030 0.757077 4.966351
v 8.655396 0.829861 -0.125450
v 6.060573 -1.402004 4.615131
v 5.778760 -1.576362 8.286682
v 6.224305 -1.319294 -0.119213
v 6.059628 -1.402520 -4.843090
v 5.777628 -1.577176 -8.496780
v 8.348497 0.756652 -5.209988
v 7.740713 0.516421 -9.948364
v 8.383476 1.602417 -5.112183
v 7.770816 1.376247 -9.872223
v -8.102908 1.265579 -5.670006
v -8.089103 0.491333 -5.775120
v -6.972850 1.003154 -10.807514
v -6.945669 0.224685 -10.879078
v -5.273602 -1.665253 -9.156425
v -5.931899 -1.495396 -5.266998
v -6.318929 -1.415138 -0.075458
v -8.686589 0.579227 -0.073742
v -5.934006 -1.494918 5.160957
vn -0.6782 -0.7282 0.0988
vn -0.6680 -0.7405 0.0736
vn -0.6673 -0.7413 0.0719
vn 0.0692 -0.6271 0.7759
vn 0.0757 0.0993 0.9922
vn -0.9864 -0.0005 0.1646
vn -0.9770 0.0017 0.2133
vn -0.9884 -0.0011 0.1519
vn -0.0193 0.9993 0.0306
vn -0.0197 0.9986 0.0497
vn -0.0193 0.9994 0.0304
vn -1.0000 -0.0039 -0.0005
vn -1.0000 -0.0039 -0.0010
vn -0.0190 0.9998 -0.0000
vn -0.0190 0.9998 -0.0001
vn 0.9917 -0.0247 0.1258
vn 0.9949 -0.0306 0.0961
vn 0.9955 -0.0319 0.0897
vn 0.9993 -0.0380 -0.0002
vn 0.6855 -0.7274 0.0293
vn 0.6861 -0.7269 0.0297
vn 0.6984 -0.7146 0.0386
vn 0.6733 -0.7394 -0.0000
vn 0.6733 -0.7394 -0.0001
vn 0.6854 -0.7275 -0.0293
vn 0.6861 -0.7269 -0.0298
vn 0.6983 -0.7147 -0.0387
vn 0.9917 -0.0250 -0.1262
vn 0.9954 -0.0321 -0.0901
vn 0.9949 -0.0309 -0.0964
vn -0.0196 0.9993 -0.0309
vn -0.0203 0.9985 -0.0504
vn -0.9860 -0.0026 -0.1667
vn -0.9880 -0.0029 -0.1546
vn -0.9762 -0.0011 -0.2167
vn 0.0610 0.0895 -0.9941
vn -0.6783 -0.7279 -0.1006
vn -0.6674 -0.7411 -0.0732
vn -0.6681 -0.7403 -0.0747
vn 0.0573 -0.6247 -0.7787
vn -0.6575 -0.7535 -0.0004
vn -0.6575 -0.7535 -0.0003
vn 0.0057 -0.9989 0.0459
vn 0.0074 -0.9998 0.0167
vn 0.0073 -0.9998 -0.0165
vn 0.0051 -0.9990 -0.0453
vt 0.056589 0.951687
vt 0.038330 0.922649
vt 0.082652 0.922649
vt 0.087988 0.951686
vt 0.008759 0.783793
vt 0.035249 0.763117
vt 0.030632 0.914049
vt 0.005488 0.890718
vt 0.042276 0.762062
vt 0.037580 0.915575
vt 0.082660 0.915575
vt 0.085934 0.762062
vt 0.125995 0.922649
vt 0.125995 0.915575
vt 0.125995 0.762062
vt 0.042947 0.754988
vt 0.085870 0.754988
vt 0.125995 0.754988
vt 0.090268 0.725951
vt 0.059860 0.725951
vt 0.125995 0.725951
vt 0.161722 0.725951
vt 0.166120 0.754988
vt 0.192130 0.725951
vt 0.209043 0.754988
vt 0.209714 0.762062
vt 0.166057 0.762062
vt 0.169331 0.915575
vt 0.214410 0.915575
vt 0.169339 0.922649
vt 0.213660 0.922649
vt 0.221359 0.914049
vt 0.216742 0.763117
vt 0.195401 0.951686
vt 0.164002 0.951686
vt 0.243232 0.783793
vt 0.246503 0.890718
vt 0.125995 0.951686
s 1
usemtl Material.001
f 2/1/1 1/2/1 4/3/2 30/4/3
f 14/5/4 3/6/4 1/7/4 2/8/4
f 1/7/5 3/6/5 6/9/5 5/10/5
f 4/3/6 1/2/7 5/10/7 7/11/8
f 7/11/9 5/10/10 6/9/10 9/12/11
f 29/13/12 4/3/6 7/11/8 8/14/13
f 8/14/14 7/11/9 9/12/11 10/15/15
f 3/16/16 11/17/17 9/12/18 6/9/16
f 11/17/17 12/18/19 10/15/19 9/12/18
f 13/19/20 11/17/21 3/16/22 14/20/22
f 15/21/23 12/18/24 11/17/21 13/19/20
f 15/21/23 16/22/25 18/23/26 12/18/24
f 16/22/25 17/24/27 19/25/27 18/23/26
f 19/25/28 21/26/28 20/27/29 18/23/30
f 18/23/30 20/27/29 10/15/19 12/18/19
f 22/28/31 20/27/31 21/26/32 24/29/32
f 8/14/14 10/15/15 20/27/31 22/28/31
f 23/30/33 22/28/34 24/29/35 25/31/35
f 29/13/12 8/14/13 22/28/34 23/30/33
f 25/32/36 24/29/36 21/26/36 19/33/36
f 26/34/37 27/35/38 23/30/39 25/31/37
f 17/36/40 26/37/40 25/32/40 19/33/40
f 27/35/38 28/38/41 29/13/42 23/30/39
f 30/4/3 4/3/2 29/13/42 28/38/41
f 17/36/43 16/22/43 27/35/43 26/37/43
f 16/22/44 15/21/44 28/38/44 27/35/44
f 15/21/45 13/19/45 30/4/45 28/38/45
f 13/19/46 14/5/46 2/1/46 30/4/46
