# Blender 4.3.0
# www.blender.org
mtllib Pillar 2.mtl
o Construcao_2.003
v -0.761581 -6.354605 0.642213
v -0.179477 -6.354600 0.642220
v -0.766353 -6.357745 1.250404
v 0.053653 -0.651886 0.158889
v 0.078998 -0.598810 0.943569
v 0.624288 -0.536440 0.124599
v -0.361034 3.048084 0.771541
v -1.132553 5.437941 0.724057
v -0.289711 2.980320 1.537582
v 0.241329 2.902866 0.787553
v -0.549640 5.437562 0.724056
v 0.310854 2.835759 1.555465
v 0.650847 -0.483293 0.911047
v -0.476253 5.436042 1.449319
v -1.059042 5.436421 1.449316
v -0.184291 -6.357742 1.250417
v -0.231781 3.073207 0.975138
v 0.110299 3.073094 0.975140
v -0.267189 3.353191 1.293165
v -0.744327 4.432414 0.051911
v -1.125818 5.443372 -1.555461
v -0.820882 4.844837 0.191479
v -0.397300 4.398612 0.016235
v -0.783348 5.443129 -1.555465
v -0.473556 4.810480 0.156394
v 0.074888 3.353056 1.293166
v -0.854415 5.758153 -1.211959
v -1.196903 5.758411 -1.211955
v 0.095211 3.029015 1.009818
v 0.146061 3.028260 1.475230
v -0.209262 3.308402 1.008889
v 0.905596 3.922663 0.637060
v 1.158510 6.042464 0.879539
v 0.557103 4.098942 0.670140
v 0.978197 3.887913 1.098069
v 1.196905 6.040483 1.310244
v 0.630303 4.063865 1.128592
v -0.157604 3.307801 1.471312
v 0.868256 6.354987 1.303355
v 0.831824 6.357745 0.876812
vn -0.0213 -0.0836 -0.9963
vn -0.0169 0.0298 -0.9994
vn -0.0155 0.0648 -0.9978
vn -0.9895 0.1440 0.0095
vn -0.9993 0.0041 0.0373
vn -0.9992 0.0235 0.0335
vn -0.9759 -0.2068 0.0696
vn -0.9749 -0.2112 0.0700
vn 0.0031 0.0524 -0.9986
vn -0.0032 0.1072 -0.9942
vn -0.9507 -0.3001 0.0784
vn 0.0112 -0.0190 -0.9998
vn 0.9992 -0.0217 -0.0336
vn 0.9761 0.2060 -0.0695
vn 0.9767 0.2033 -0.0692
vn 0.9993 -0.0007 -0.0376
vn 0.9537 0.2905 -0.0779
vn 0.0144 -0.0793 0.9967
vn 0.0013 -0.1017 0.9948
vn -0.0039 -0.0433 0.9991
vn 0.0165 -0.0477 0.9987
vn -0.0108 0.0351 0.9993
vn 0.9902 -0.1396 -0.0104
vn 0.0229 0.0521 0.9984
vn -0.0707 -0.5905 -0.8040
vn -0.0710 -0.7515 -0.6559
vn -0.0713 -0.7114 -0.6992
vn -0.9562 -0.2525 0.1481
vn -0.9622 -0.2513 0.1047
vn -0.9598 -0.2519 0.1239
vn -0.0692 -0.8453 -0.5298
vn -0.9646 -0.2506 0.0825
vn 0.9564 0.2520 -0.1474
vn 0.9600 0.2514 -0.1234
vn 0.9624 0.2509 -0.1044
vn 0.9647 0.2502 -0.0821
vn 0.0708 0.6197 0.7816
vn 0.0712 0.7209 0.6894
vn 0.0710 0.7557 0.6510
vn 0.0696 0.8369 0.5429
vn 0.6984 -0.7056 -0.1201
vn -0.1989 -0.2175 -0.9556
vn -0.0863 -0.0589 -0.9945
vn -0.0910 -0.0654 -0.9937
vn 0.9873 -0.0955 -0.1268
vn 0.0272 0.0988 -0.9947
vn 0.1975 0.2269 0.9537
vn 0.0902 0.0768 0.9930
vn 0.0866 0.0718 0.9936
vn -0.0261 -0.0841 0.9961
vn -0.6735 0.7295 0.1196
vn -0.9868 0.1006 0.1266
vt 0.864927 0.606150
vt 0.864927 0.642699
vt 0.853109 0.642699
vt 0.853109 0.606150
vt 0.876390 0.606150
vt 0.876390 0.642699
vt 0.876390 0.706706
vt 0.864927 0.706706
vt 0.853109 0.706706
vt 0.413372 0.110015
vt 0.413372 0.065118
vt 0.421413 0.065118
vt 0.421413 0.110015
vt 0.535333 0.182737
vt 0.535333 0.153571
vt 0.544481 0.153571
vt 0.544481 0.182737
vt 0.551939 0.143579
vt 0.520370 0.143579
vt 0.520370 0.133371
vt 0.551939 0.133371
vt 0.465083 0.143579
vt 0.465083 0.133371
vt 0.013053 0.371915
vt 0.013053 0.417684
vt 0.004599 0.417684
vt 0.004426 0.371896
vt 0.031699 0.248397
vt 0.031699 0.287158
vt 0.024656 0.287129
vt 0.024609 0.248350
vt 0.156631 0.027811
vt 0.156567 0.091297
vt 0.144224 0.091368
vt 0.144224 0.027946
vt 0.626526 0.755726
vt 0.626526 0.812922
vt 0.615483 0.812992
vt 0.615532 0.755788
vt 0.559398 0.169085
vt 0.559398 0.186466
vt 0.553205 0.186466
vt 0.553205 0.169085
vt 0.253594 0.521015
vt 0.253594 0.540752
vt 0.246773 0.540752
vt 0.246773 0.521015
vt 0.434466 0.637333
vt 0.434466 0.656361
vt 0.427890 0.656361
vt 0.427890 0.637333
vt 0.085774 0.191786
vt 0.085774 0.212571
vt 0.078369 0.212571
vt 0.078369 0.191786
vt 0.236812 0.512028
vt 0.236812 0.537022
vt 0.231390 0.537022
vt 0.231390 0.512028
vt 0.050346 0.242358
vt 0.050346 0.268511
vt 0.044497 0.268511
vt 0.044497 0.242358
vt 0.380391 0.063956
vt 0.380391 0.087639
vt 0.375253 0.087639
vt 0.375253 0.063956
vt 0.417684 0.634141
vt 0.417684 0.656361
vt 0.412715 0.656361
vt 0.412715 0.634141
vt 0.048441 0.397904
vt 0.048481 0.421413
vt 0.043846 0.421404
vt 0.043812 0.397905
vt 0.149137 0.101838
vt 0.149173 0.123068
vt 0.144855 0.123036
vt 0.144925 0.101838
vt 0.961946 0.633387
vt 0.962165 0.660047
vt 0.956889 0.660082
vt 0.956704 0.633396
vt 0.197654 0.005248
vt 0.197651 0.033516
vt 0.192206 0.033564
vt 0.192206 0.005275
vt 0.956896 0.606161
vt 0.951406 0.633383
vt 0.951574 0.606147
vt 0.951452 0.660090
vt 0.637714 0.327255
vt 0.637694 0.350556
vt 0.633456 0.350548
vt 0.633460 0.327250
vt 0.399037 0.064622
vt 0.398973 0.096962
vt 0.393005 0.096936
vt 0.392950 0.064622
s 1
usemtl Material.019
f 1/1/1 4/2/2 6/3/3 2/4/1
f 3/5/4 5/6/5 4/2/6 1/1/4
f 5/6/5 9/7/7 7/8/8 4/2/6
f 4/2/2 7/8/9 10/9/10 6/3/3
f 9/10/7 15/11/11 8/12/11 7/13/8
f 7/14/9 8/15/12 11/16/12 10/17/10
f 6/18/13 10/19/14 12/20/15 13/21/16
f 10/19/14 11/22/17 14/23/17 12/20/15
f 13/24/18 12/25/19 9/26/20 5/27/21
f 12/28/19 14/29/22 15/30/22 9/31/20
f 2/32/23 6/33/13 13/34/16 16/35/23
f 16/36/24 13/37/18 5/38/21 3/39/24
f 17/40/25 20/41/26 23/42/27 18/43/25
f 19/44/28 22/45/29 20/46/30 17/47/28
f 20/48/26 21/49/31 24/50/31 23/51/27
f 22/52/29 28/53/32 21/54/32 20/55/30
f 18/56/33 23/57/34 25/58/35 26/59/33
f 23/60/34 24/61/36 27/62/36 25/63/35
f 26/64/37 25/65/38 22/66/39 19/67/37
f 25/68/38 27/69/40 28/70/40 22/71/39
f 29/72/41 32/73/41 35/74/41 30/75/41
f 31/76/42 34/77/43 32/78/44 29/79/42
f 32/80/45 33/81/45 36/82/45 35/83/45
f 34/84/43 40/85/46 33/86/46 32/87/44
f 30/88/47 35/83/48 37/89/49 38/90/47
f 35/83/48 36/82/50 39/91/50 37/89/49
f 38/92/51 37/93/51 34/94/51 31/95/51
f 37/96/52 39/97/52 40/98/52 34/99/52
