# Blender 4.3.0
# www.blender.org
mtllib Pillar 3.mtl
o Construcao_2.004
v -0.608444 2.434961 0.155773
v -0.609756 2.434381 -0.171982
v -0.754475 2.670769 0.226326
v 0.394104 3.539412 0.634293
v 1.696109 4.322437 0.923272
v 0.397946 3.862823 0.726239
v 0.408524 3.512341 0.300438
v 1.694394 4.322707 0.600953
v 0.412344 3.835984 0.393361
v -0.755836 2.670223 -0.101185
v 1.543904 4.564672 0.695392
v 1.545656 4.563904 1.016534
v -1.015929 -4.564598 1.051347
v -1.017149 -4.564423 0.504009
v -1.664826 -4.564672 1.051738
v -1.099791 -1.002927 0.038833
v -1.696110 -0.946126 0.019153
v -1.056667 -0.891428 -0.506745
v -0.472452 2.413271 0.243813
v 0.161297 4.323885 1.005211
v -1.037193 2.358283 0.254097
v -0.528919 2.288891 -0.332584
v 0.158441 4.324941 0.456273
v -1.095503 2.234085 -0.321720
v -1.650204 -0.834712 -0.525975
v -0.370718 4.326792 0.457569
v -0.367894 4.325632 1.006565
v -1.666044 -4.564498 0.504386
v -0.646585 2.397355 -0.029026
v -0.979116 2.398258 -0.028891
v -0.564438 2.632771 0.265930
v -0.142044 3.137122 -0.728647
v 0.006599 4.194011 -1.051738
v -0.119222 3.277198 -0.394186
v -0.475952 3.110388 -0.751942
v -0.314447 4.195236 -1.051098
v -0.452232 3.250391 -0.417766
v -0.895252 2.633685 0.266136
v -0.243284 4.435225 -0.733566
v 0.076567 4.433964 -0.734300
vn 0.7236 -0.6888 0.0431
vn 0.6425 -0.7650 0.0443
vn 0.6068 -0.7936 0.0446
vn -0.1076 -0.3025 0.9470
vn -0.0855 -0.3074 0.9477
vn -0.0502 -0.3148 0.9478
vn 0.5163 -0.8552 0.0449
vn -0.0310 -0.3187 0.9474
vn 0.1066 0.3041 -0.9467
vn 0.0503 0.3173 -0.9470
vn 0.0851 0.3093 -0.9472
vn 0.0312 0.3216 -0.9464
vn -0.7028 0.7100 -0.0433
vn -0.6007 0.7983 -0.0440
vn -0.6319 0.7738 -0.0439
vn -0.5226 0.8514 -0.0440
vn 0.9987 0.0286 0.0412
vn 0.9955 -0.0943 0.0102
vn 0.9983 -0.0538 0.0205
vn -0.0024 0.2739 0.9618
vn -0.0053 0.1084 0.9941
vn -0.0054 0.1063 0.9943
vn 0.0137 -0.2520 0.9676
vn 0.0059 -0.1854 0.9827
vn 0.9752 -0.2211 -0.0119
vn 0.9654 -0.2603 -0.0136
vn 0.9500 -0.3118 -0.0159
vn 0.0280 -0.3716 0.9280
vn 0.0049 -0.1067 -0.9943
vn 0.0050 -0.1041 -0.9946
vn -0.0065 0.1795 -0.9837
vn -0.0139 0.2442 -0.9696
vn -0.0279 0.3632 -0.9313
vn -0.9940 0.1087 -0.0112
vn -0.9974 0.0687 -0.0214
vn -0.9627 0.2704 0.0137
vn -0.9723 0.2333 0.0115
vn -0.9476 0.3191 0.0166
vn -0.9990 -0.0140 -0.0423
vn 0.0025 -0.2658 -0.9640
vn 0.0519 -0.7171 -0.6950
vn 0.0504 -0.5606 -0.8266
vn 0.0487 -0.4656 -0.8836
vn 0.8735 -0.4681 0.1336
vn 0.9491 -0.3123 0.0399
vn 0.9420 -0.3316 0.0512
vn 0.9851 -0.1663 -0.0433
vn 0.0442 -0.2846 -0.9576
vn -0.8692 0.4757 -0.1352
vn -0.9394 0.3389 -0.0524
vn -0.9469 0.3189 -0.0407
vn -0.9841 0.1722 0.0429
vn -0.0525 0.7453 0.6647
vn -0.0444 0.2766 0.9600
vt 0.645139 0.772357
vt 0.649888 0.772357
vt 0.649888 0.791036
vt 0.645139 0.791036
vt 0.640531 0.772357
vt 0.640531 0.791036
vt 0.649888 0.809263
vt 0.645139 0.809263
vt 0.640531 0.809263
vt 0.654496 0.772357
vt 0.654496 0.791036
vt 0.654496 0.809263
vt 0.635781 0.772357
vt 0.635781 0.791036
vt 0.635781 0.809263
vt 0.778841 0.608967
vt 0.786887 0.608967
vt 0.786887 0.658667
vt 0.778841 0.658667
vt 0.771030 0.608967
vt 0.771030 0.658667
vt 0.778841 0.705468
vt 0.771030 0.705468
vt 0.786887 0.705468
vt 0.786887 0.732812
vt 0.778841 0.732812
vt 0.771030 0.732812
vt 0.755173 0.658667
vt 0.762985 0.658667
vt 0.762985 0.705468
vt 0.755173 0.705468
vt 0.762985 0.732812
vt 0.755173 0.732812
vt 0.762985 0.608967
vt 0.755173 0.608967
vt 0.857270 0.833503
vt 0.852936 0.833503
vt 0.852936 0.817456
vt 0.857270 0.817456
vt 0.861473 0.833503
vt 0.861473 0.817456
vt 0.857270 0.799416
vt 0.861473 0.799416
vt 0.852936 0.799416
vt 0.848732 0.833503
vt 0.848732 0.817456
vt 0.848732 0.799416
vt 0.844399 0.833503
vt 0.844399 0.817456
vt 0.844399 0.799416
s 1
usemtl Material.019
f 1/1/1 2/2/1 7/3/2 4/4/3
f 3/5/4 1/1/4 4/4/5 6/6/6
f 4/4/3 7/3/2 8/7/7 5/8/7
f 6/6/6 4/4/5 5/8/8 12/9/8
f 2/2/9 10/10/9 9/11/10 7/3/11
f 7/3/11 9/11/10 11/12/12 8/7/12
f 10/13/13 3/5/13 6/6/14 9/14/15
f 9/14/15 6/6/14 12/9/16 11/15/16
f 13/16/17 14/17/17 18/18/18 16/19/19
f 15/20/20 13/16/20 16/19/21 17/21/22
f 17/21/22 16/19/21 19/22/23 21/23/24
f 16/19/19 18/18/18 22/24/25 19/22/26
f 19/22/26 22/24/25 23/25/27 20/26/27
f 21/23/24 19/22/23 20/26/28 27/27/28
f 18/28/29 25/29/30 24/30/31 22/31/32
f 22/31/32 24/30/31 26/32/33 23/33/33
f 25/29/34 17/21/35 21/23/36 24/30/37
f 24/30/37 21/23/36 27/27/38 26/32/38
f 28/34/39 15/20/39 17/21/35 25/29/34
f 14/35/40 28/34/40 25/29/30 18/28/29
f 29/36/41 30/37/41 35/38/42 32/39/43
f 31/40/44 29/36/44 32/39/45 34/41/46
f 34/41/46 32/39/45 33/42/47 40/43/47
f 32/39/43 35/38/42 36/44/48 33/42/48
f 30/37/49 38/45/49 37/46/50 35/38/51
f 35/38/51 37/46/50 39/47/52 36/44/52
f 38/45/53 31/48/53 34/49/53 37/46/53
f 37/46/54 34/49/54 40/50/54 39/47/54
