# Blender 4.3.0
# www.blender.org
mtllib Roof 1.mtl
o Construcao_1.006
v 2.643650 -0.806642 2.789619
v 2.643650 -0.806642 -2.732315
v -2.725372 0.557850 2.874969
v -2.725373 0.557850 -2.989334
v -1.278871 -0.243639 2.779114
v 0.113896 -0.806643 2.989334
v 1.203385 -0.948246 2.981926
v 1.399406 -0.948246 -2.850113
v -0.195618 -0.806643 -2.643341
v -1.487360 -0.243639 -2.645584
v 1.203385 -0.557849 2.981926
v 2.725373 -0.416246 2.788414
v 2.561928 -0.416246 -2.731102
v -1.487360 0.146757 -2.645584
v -2.725373 0.948246 -2.989334
v -2.725372 0.948246 2.874969
v -1.278871 0.146757 2.779114
v 0.113896 -0.416247 2.989334
v 1.399406 -0.557849 -2.850113
v -0.195618 -0.416247 -2.643341
vn -0.4489 -0.8935 0.0141
vn -0.5133 -0.8582 0.0095
vn -0.4573 -0.8892 0.0135
vn 0.1050 -0.9945 0.0018
vn -0.0071 -1.0000 0.0014
vn 0.0037 -1.0000 0.0014
vn -0.2377 -0.9713 0.0090
vn -0.2481 -0.9687 0.0097
vn 0.4489 0.8935 -0.0141
vn 0.4573 0.8892 -0.0135
vn 0.5133 0.8582 -0.0095
vn -0.1049 0.9945 -0.0003
vn -0.0034 1.0000 -0.0007
vn 0.0069 1.0000 -0.0007
vn 0.2481 0.9687 -0.0097
vn 0.2377 0.9713 -0.0090
vn 0.0694 -0.0061 0.9976
vn 0.1303 -0.0121 0.9914
vn 0.0680 -0.0060 0.9977
vn 0.0966 0.0116 -0.9953
vn -0.0171 0.0058 -0.9998
vn -0.0150 0.0059 -0.9999
vn 0.0661 -0.0000 0.9978
vn -0.0736 -0.0000 0.9973
vn -0.0124 -0.0000 0.9999
vn 0.9999 -0.0000 -0.0148
vn -0.0751 -0.0000 -0.9972
vn -0.0541 -0.0000 -0.9985
vn -0.0576 -0.0000 0.9983
vn -0.0832 -0.0000 0.9965
vn 0.0924 -0.0000 -0.9957
vn 0.2675 -0.0000 -0.9635
vn 0.1752 -0.0000 -0.9845
vt 0.482636 0.012277
vt 0.518569 0.007677
vt 0.528755 0.136971
vt 0.494170 0.135528
vt 0.390044 0.017929
vt 0.423334 0.011065
vt 0.427113 0.136741
vt 0.400237 0.139133
vt 0.448331 0.009461
vt 0.461999 0.134660
vt 0.489698 0.273765
vt 0.498227 0.143582
vt 0.532978 0.144019
vt 0.525798 0.273739
vt 0.398861 0.269881
vt 0.401800 0.147833
vt 0.427653 0.145258
vt 0.432526 0.275449
vt 0.464452 0.143225
vt 0.456509 0.276363
vt 0.431509 0.283888
vt 0.400031 0.278441
vt 0.521987 0.280748
vt 0.486368 0.281537
vt 0.390044 0.269696
vt 0.392983 0.147648
vt 0.454645 0.284432
s 1
usemtl Material.020
f 5/1/1 3/2/2 4/3/2 10/4/3
f 1/5/4 7/6/5 8/7/6 2/8/4
f 7/6/5 6/9/7 9/10/8 8/7/6
f 6/9/7 5/1/1 10/4/3 9/10/8
f 17/11/9 14/12/10 15/13/11 16/14/11
f 12/15/12 13/16/12 19/17/13 11/18/14
f 11/18/14 19/17/13 20/19/15 18/20/16
f 18/20/16 20/19/15 14/12/10 17/11/9
f 7/21/17 1/22/18 12/15/18 11/18/19
f 2/8/20 8/7/21 19/17/22 13/16/20
f 3/23/23 5/24/24 17/11/25 16/14/23
f 1/25/26 2/26/26 13/16/26 12/15/26
f 8/7/21 9/10/27 20/19/28 19/17/22
f 5/24/24 6/27/29 18/20/30 17/11/25
f 10/4/31 4/3/32 15/13/32 14/12/33
f 9/10/27 10/4/31 14/12/33 20/19/28
f 6/27/29 7/21/17 11/18/19 18/20/30
