# Blender 4.3.0
# www.blender.org
mtllib Stairs 2.mtl
o Teste
v -1.621274 -1.387499 6.834547
v 0.105985 -1.401432 6.885889
v -1.798437 0.412256 6.466726
v -1.817503 0.622507 6.417589
v -0.100829 0.388327 6.570192
v -0.125208 0.583432 6.543997
v 0.984874 0.342056 6.472738
v -0.141282 0.368231 6.886724
v -0.165952 0.566373 6.855757
v 0.942207 0.324524 6.779921
v 0.902325 0.519809 6.810286
v 1.068784 0.326212 6.739172
v 1.026977 0.521581 6.776674
v 1.111766 0.343620 6.434065
v 1.069703 0.536557 6.473146
v 1.698495 0.545382 3.101202
v 1.928884 0.556323 -0.722174
v 1.668131 0.717739 3.117071
v 1.574303 0.545121 3.115541
v 1.807716 0.556722 -0.720026
v 1.791253 -1.271873 3.227324
v 1.193559 -1.406483 6.736959
v 2.050485 -1.244781 -0.430948
v 1.418388 -1.310670 -4.424593
v 1.003366 -1.362773 -6.876722
v 1.182311 0.523055 -4.377470
v 0.817943 0.428677 -6.574930
v 1.299705 0.521932 -4.376749
v 0.932914 0.427648 -6.574614
v 1.265759 0.673527 -4.413595
v 0.917094 0.553814 -6.533850
v 1.148602 0.674535 -4.414690
v 1.898850 0.702059 -0.807699
v 1.778031 0.702350 -0.806444
v 1.545178 0.717528 3.128080
v 0.669950 0.760547 -0.876013
v 0.632074 0.773773 1.885103
v 0.059490 0.740351 -4.509005
v 0.577787 1.076979 -1.420569
v 0.621073 1.046606 1.773596
v 0.071230 1.161595 -4.197184
v 0.696079 1.070283 -1.412623
v 0.736391 1.039266 1.787512
v 0.186872 1.154551 -4.191965
v 0.679296 1.253325 -1.435282
v 0.726965 1.214022 1.773805
v 0.173155 1.378335 -4.167528
v 0.561877 1.257365 -1.441313
v 0.611996 1.218196 1.761618
v 0.058578 1.382306 -4.171190
v -1.246167 1.291118 -1.471556
v -1.707975 1.404472 -4.256567
v -1.187599 1.248432 1.732309
v -1.858099 1.404822 6.338541
v -0.167395 1.335660 6.469198
v -1.894384 1.406484 6.629492
v -0.207615 1.334456 6.767778
v -1.886482 1.147753 6.640551
v -0.203212 1.075763 6.798368
v -1.849597 1.149890 6.347471
v -0.162525 1.082299 6.495947
v -0.055764 1.072557 6.523859
v -0.060143 1.327966 6.493719
v -0.096444 1.065789 6.827116
v -0.100352 1.326358 6.793093
v -2.024168 1.078158 -6.559843
v -0.274477 1.101827 -6.348482
v -2.043379 1.047803 -6.774973
v -0.296050 1.076238 -6.551847
v -2.050485 0.886219 -6.886724
v -2.030665 0.915068 -6.662176
v -0.292894 0.892225 -6.636930
v -0.271221 0.918215 -6.428102
v -0.179201 0.888135 -6.632612
v -0.183271 1.077555 -6.547319
v -0.157381 0.913753 -6.423685
v -0.161545 1.102477 -6.344107
v -0.255691 0.610334 -6.567999
v -2.019067 0.613290 -6.741049
v 0.802259 0.554777 -6.534250
v -0.244375 0.487499 -6.617197
v -0.278200 0.588780 -6.789202
v 0.777377 0.534468 -6.762186
v -0.267549 0.469336 -6.844114
v 0.791948 0.411994 -6.810545
v 0.906737 0.410990 -6.810308
v 0.892043 0.533527 -6.761930
v -0.068685 -1.305012 -6.884699
v -2.003977 0.483853 -6.727541
v -1.813841 -1.329121 -6.690268
v 0.944751 0.534920 6.504999
vn 0.0420 0.1784 0.9831
vn 0.0004 0.1782 0.9840
vn -0.0537 0.1789 0.9824
vn -0.0424 0.1825 0.9823
vn -0.0697 0.1451 0.9869
vn -0.0708 0.1401 0.9876
vn 0.1150 0.1738 0.9780
vn 0.1142 0.1740 0.9781
vn -0.9806 -0.1420 -0.1351
vn -0.0476 -0.9967 -0.0665
vn -0.0181 -0.9979 -0.0620
vn -0.0314 -0.9975 -0.0631
vn 0.0711 0.0132 0.9974
vn 0.1951 -0.0561 0.9792
vn 0.1629 -0.0380 0.9859
vn 0.2835 -0.1063 0.9531
vn -0.0056 -0.9982 -0.0592
vn -0.0053 -0.9983 -0.0577
vn 0.9711 0.1722 0.1650
vn 0.9712 0.1734 0.1633
vn 0.9725 0.1811 0.1466
vn 0.9762 0.1829 0.1168
vn 0.9757 0.1812 0.1233
vn -0.0036 -0.9993 -0.0364
vn -0.0029 -0.9996 -0.0277
vn 0.9835 0.1801 -0.0179
vn 0.9825 0.1604 -0.0946
vn -0.0036 -1.0000 0.0038
vn -0.0035 -1.0000 0.0035
vn 0.9833 0.1342 0.1230
vn 0.9839 0.1341 0.1179
vn 0.9753 0.1343 0.1755
vn 0.9752 0.1349 0.1752
vn 0.9912 0.1271 -0.0372
vn 0.9902 0.1256 -0.0604
vn 0.9784 0.1241 -0.1653
vn 0.9784 0.1265 -0.1633
vn 0.9772 0.1298 -0.1679
vn -0.0109 -0.9996 0.0278
vn -0.0244 -0.9975 0.0661
vn -0.0092 -0.9983 0.0568
vn -0.0077 -0.9996 0.0255
vn 0.9757 0.1685 -0.1401
vn 0.9736 0.1714 -0.1509
vn 0.9723 0.1607 -0.1700
vn 0.9731 0.1551 -0.1702
vn 0.0336 0.9963 -0.0788
vn 0.0332 0.9988 -0.0374
vn 0.0070 0.9995 -0.0306
vn 0.0087 0.9973 -0.0723
vn 0.0300 0.9995 -0.0074
vn 0.0027 1.0000 -0.0063
vn 0.0153 0.9993 0.0334
vn 0.0009 0.9998 0.0212
vn 0.0577 0.9983 -0.0098
vn 0.0492 0.9987 0.0107
vn 0.0592 0.9971 -0.0469
vn 0.9879 0.1524 -0.0293
vn 0.9869 0.0762 -0.1425
vn 0.9877 0.1434 0.0618
vn 0.9870 0.1244 0.1022
vn 0.9826 0.0892 -0.1629
vn 0.9835 0.0674 -0.1678
vn -0.0672 -0.9977 -0.0071
vn -0.0610 -0.9980 -0.0149
vn -0.0556 -0.9984 -0.0136
vn -0.0677 -0.9977 -0.0070
vn -0.0560 -0.9968 0.0573
vn -0.0564 -0.9976 0.0393
vn 0.9936 0.0703 -0.0882
vn 0.9919 0.0734 -0.1040
vn 0.9956 0.0608 0.0720
vn 0.9950 0.0597 0.0800
vn 0.9824 0.0792 -0.1689
vn 0.9823 0.0784 -0.1704
vn 0.0253 0.9993 0.0262
vn 0.0347 0.9994 -0.0034
vn 0.0453 0.9990 -0.0020
vn 0.0337 0.9991 0.0243
vn 0.0201 0.9986 -0.0481
vn 0.0269 0.9990 -0.0346
vn 0.0158 0.9995 0.0275
vn 0.0237 0.9997 -0.0067
vn 0.0125 0.9982 -0.0590
vn 0.0357 0.9993 -0.0095
vn 0.0488 0.9988 -0.0061
vn 0.0414 0.9991 0.0046
vn 0.0560 0.9984 0.0094
vn -0.1643 0.0987 0.9815
vn -0.1550 0.0963 0.9832
vn -0.0840 0.0780 0.9934
vn -0.0396 -0.9990 -0.0197
vn -0.0662 -0.9976 -0.0187
vn -0.0620 -0.9977 -0.0266
vn -0.0772 0.1089 0.9911
vn -0.0797 -0.9966 -0.0201
vn -0.0832 -0.9960 -0.0331
vn 0.9820 0.0952 0.1629
vn 0.9879 0.0409 0.1496
vn 0.9883 0.0398 0.1475
vn 0.9905 0.0325 0.1334
vn -0.2340 0.1164 0.9652
vn 0.0633 0.9980 0.0001
vn 0.0701 0.9974 0.0141
vn 0.0116 0.9911 -0.1327
vn 0.0057 0.9910 -0.1340
vn -0.0033 0.9919 -0.1272
vn 0.0017 0.9912 -0.1327
vn 0.1118 0.4908 -0.8640
vn 0.0780 0.4517 -0.8887
vn 0.0765 0.4540 -0.8877
vn -0.0378 -0.9916 0.1235
vn -0.0149 -0.9918 0.1269
vn -0.0269 -0.9916 0.1269
vn -0.0490 -0.9915 0.1209
vn -0.0421 -0.9910 0.1268
vn 0.0406 0.4154 -0.9087
vn 0.9862 0.0792 -0.1452
vn 0.9887 0.0752 -0.1297
vn 0.9910 0.0710 -0.1134
vn 0.0088 0.9919 -0.1266
vn -0.0038 0.9924 -0.1229
vn 0.0948 0.2496 -0.9637
vn 0.1079 0.3400 -0.9342
vn 0.0938 0.2434 -0.9654
vn 0.9817 0.1039 -0.1595
vn 0.0312 0.1078 -0.9937
vn 0.0272 0.1206 -0.9923
vn 0.0572 0.9947 -0.0852
vn 0.0332 0.9950 -0.0943
vn 0.0545 0.9937 -0.0984
vn -0.9841 -0.1376 0.1125
vn 0.0472 0.3963 -0.9169
vn 0.0279 0.3834 -0.9232
vn 0.0244 0.3810 -0.9243
vn -0.0574 -0.9951 0.0811
vn -0.0351 -0.9964 0.0767
vn -0.0090 -0.9974 0.0716
vn 0.0051 0.3678 -0.9299
vn 0.9791 0.1636 -0.1212
vn 0.0085 0.9959 -0.0896
vn -0.0244 0.0612 -0.9978
vn 0.0060 0.1146 -0.9934
vn 0.0320 0.1599 -0.9866
vn 0.0359 0.9979 0.0547
vn 0.0163 0.9986 0.0512
vn 0.0007 0.9987 0.0510
vn 0.0466 0.9972 0.0583
vn 0.0277 0.9981 0.0547
vn -0.0007 0.9988 0.0493
vt 0.022898 0.435050
vt 0.023312 0.450749
vt 0.006002 0.452225
vt 0.005559 0.436403
vt 0.023351 0.452458
vt 0.006053 0.454081
vt 0.033358 0.434366
vt 0.033813 0.449679
vt 0.048978 0.128265
vt 0.050668 0.128598
vt 0.050350 0.131487
vt 0.048639 0.131119
vt 0.858431 0.383795
vt 0.857631 0.373696
vt 0.860316 0.373687
vt 0.861198 0.383795
vt 0.049067 0.142063
vt 0.047332 0.141602
vt 0.048927 0.143297
vt 0.047178 0.142811
vt 0.857302 0.372567
vt 0.859968 0.372557
vt 0.048882 0.146097
vt 0.047154 0.145608
vt 0.048278 0.176786
vt 0.046747 0.176619
vt 0.828190 0.373933
vt 0.828073 0.372833
vt 0.049537 0.212136
vt 0.048282 0.212998
vt 0.794401 0.374224
vt 0.794390 0.373141
vt 0.064444 0.435921
vt 0.064416 0.451827
vt 0.096991 0.436550
vt 0.099623 0.452351
vt 0.132496 0.436390
vt 0.133181 0.452449
vt 0.154249 0.436181
vt 0.153265 0.451845
vt 0.762195 0.374123
vt 0.742917 0.373690
vt 0.742929 0.372613
vt 0.762211 0.373045
vt 0.052810 0.266074
vt 0.051686 0.265878
vt 0.049839 0.246391
vt 0.051160 0.245889
vt 0.863084 0.743414
vt 0.862646 0.724885
vt 0.863717 0.724867
vt 0.864154 0.743401
vt 0.862606 0.693210
vt 0.863680 0.693214
vt 0.862936 0.658653
vt 0.864026 0.658743
vt 0.852772 0.693890
vt 0.852972 0.669622
vt 0.852772 0.725814
vt 0.558377 0.800471
vt 0.553240 0.797688
vt 0.583050 0.797901
vt 0.584023 0.800307
vt 0.524647 0.800718
vt 0.527256 0.796994
vt 0.854027 0.501511
vt 0.854297 0.529380
vt 0.853250 0.529302
vt 0.852985 0.501385
vt 0.854381 0.553680
vt 0.853327 0.553623
vt 0.033385 0.199261
vt 0.031800 0.199541
vt 0.031573 0.169998
vt 0.033089 0.169885
vt 0.033146 0.224852
vt 0.031202 0.224803
vt 0.879103 0.633138
vt 0.878864 0.661107
vt 0.877826 0.661220
vt 0.878062 0.633200
vt 0.879140 0.609200
vt 0.878092 0.609241
vt 0.895398 0.632742
vt 0.895131 0.660731
vt 0.895521 0.608307
vt 0.894951 0.701141
vt 0.878605 0.702347
vt 0.894953 0.703695
vt 0.878601 0.704962
vt 0.031921 0.122461
vt 0.029674 0.122558
vt 0.029451 0.105265
vt 0.031702 0.105190
vt 0.870148 0.461583
vt 0.853799 0.460257
vt 0.853795 0.457618
vt 0.870150 0.459019
vt 0.023723 0.456806
vt 0.006421 0.458682
vt 0.852760 0.460016
vt 0.852755 0.457370
vt 0.627177 0.797514
vt 0.627130 0.801913
vt 0.029758 0.126443
vt 0.031977 0.126367
vt 0.029721 0.123678
vt 0.031985 0.123583
vt 0.877565 0.702562
vt 0.877561 0.705184
vt 0.878678 0.590241
vt 0.895272 0.588240
vt 0.878624 0.588479
vt 0.895237 0.586377
vt 0.030974 0.265224
vt 0.029451 0.264607
vt 0.033912 0.247522
vt 0.035525 0.248069
vt 0.853882 0.573070
vt 0.870559 0.575310
vt 0.870523 0.577252
vt 0.853824 0.574877
vt 0.852814 0.573018
vt 0.852755 0.574826
vt 0.034229 0.246446
vt 0.035883 0.247002
vt 0.033977 0.244605
vt 0.035625 0.245116
vt 0.877617 0.590290
vt 0.877561 0.588529
vt 0.181357 0.456033
vt 0.181018 0.458682
vt 0.163227 0.457174
vt 0.163546 0.454330
vt 0.505655 0.801913
vt 0.506625 0.799195
vt 0.181417 0.454871
vt 0.163615 0.453210
vt 0.853154 0.743820
vt 0.863141 0.745399
vt 0.853206 0.745748
vt 0.047823 0.280826
vt 0.046747 0.280476
vt 0.048055 0.278916
vt 0.049136 0.279206
vt 0.051600 0.269034
vt 0.052694 0.269301
vt 0.742432 0.383697
vt 0.740447 0.383648
vt 0.740857 0.373634
vt 0.740869 0.372557
vt 0.051951 0.267959
vt 0.053045 0.268226
vt 0.864211 0.745386
vt 0.182537 0.438886
vt 0.164637 0.437553
vt 0.853207 0.628792
vt 0.863191 0.629106
vt 0.864307 0.629378
vt 0.853208 0.626071
vt 0.863201 0.626443
vt 0.864319 0.626730
s 1
usemtl Material.001
f 2/1/1 5/2/2 3/3/3 1/4/4
f 5/2/2 6/5/5 4/6/6 3/3/3
f 5/2/2 2/1/1 22/7/7 7/8/8
f 6/9/9 5/10/9 8/11/9 9/12/9
f 5/13/10 7/14/11 10/15/12 8/16/10
f 9/12/13 8/11/13 10/17/14 11/18/15
f 11/18/15 10/17/14 12/19/16 13/20/16
f 7/14/11 14/21/17 12/22/18 10/15/12
f 14/23/19 15/24/20 13/20/21 12/19/21
f 16/25/22 18/26/23 15/24/20 14/23/19
f 7/14/11 19/27/24 16/28/25 14/21/17
f 17/29/26 33/30/27 18/26/23 16/25/22
f 19/27/24 20/31/28 17/32/29 16/28/25
f 21/33/30 19/34/31 7/8/32 22/7/33
f 23/35/34 20/36/35 19/34/31 21/33/30
f 24/37/36 26/38/37 20/36/35 23/35/34
f 25/39/38 27/40/38 26/38/37 24/37/36
f 26/41/39 27/42/40 29/43/41 28/44/42
f 20/31/28 26/41/39 28/44/42 17/32/29
f 29/45/43 31/46/44 30/47/45 28/48/46
f 28/48/46 30/47/45 33/30/27 17/29/26
f 80/49/47 32/50/48 30/51/49 31/52/50
f 32/50/48 34/53/51 33/54/52 30/51/49
f 34/53/51 35/55/53 18/56/54 33/54/52
f 36/57/55 37/58/56 35/55/53 34/53/51
f 38/59/57 36/57/55 34/53/51 32/50/48
f 36/60/58 39/61/59 40/62/60 37/63/61
f 38/64/62 41/65/63 39/61/59 36/60/58
f 40/66/64 39/67/65 42/68/66 43/69/67
f 39/67/65 41/70/68 44/71/69 42/68/66
f 42/72/70 45/73/71 46/74/72 43/75/73
f 44/76/74 47/77/75 45/73/71 42/72/70
f 48/78/76 49/79/77 46/80/78 45/81/79
f 50/82/80 48/78/76 45/81/79 47/83/81
f 48/78/76 51/84/82 53/85/83 49/79/77
f 50/82/80 52/86/84 51/84/82 48/78/76
f 49/79/77 53/85/83 54/87/85 55/88/86
f 55/88/86 54/87/85 56/89/87 57/90/88
f 59/91/89 57/92/90 56/93/91 58/94/91
f 60/95/92 61/96/93 59/97/94 58/98/92
f 6/5/5 61/99/95 60/100/95 4/6/6
f 61/96/93 62/101/96 64/102/97 59/97/94
f 37/63/61 40/62/60 61/103/98 6/104/98
f 61/96/93 40/66/64 43/69/67 62/101/96
f 43/75/73 46/74/72 63/105/99 62/106/100
f 62/106/100 63/105/99 65/107/101 64/108/101
f 57/92/90 59/91/89 64/108/102 65/107/102
f 63/109/103 55/88/86 57/90/88 65/110/104
f 49/79/77 55/88/86 63/109/103 46/80/78
f 67/111/105 66/112/106 52/86/84 50/82/80
f 66/112/106 67/111/105 69/113/107 68/114/108
f 70/115/109 68/116/109 69/117/110 72/118/111
f 73/119/112 71/120/113 70/121/113 72/122/114
f 76/123/115 73/119/112 72/122/114 74/124/116
f 72/118/111 69/117/110 75/125/117 74/126/117
f 77/127/118 76/128/119 74/126/120 75/125/120
f 76/128/119 77/127/118 47/77/75 44/76/74
f 41/70/68 73/119/112 76/123/115 44/71/69
f 67/111/105 77/129/121 75/130/122 69/113/107
f 67/111/105 50/82/80 47/83/81 77/129/121
f 79/131/123 71/132/124 73/133/124 78/134/125
f 78/135/126 73/136/126 41/65/63 38/64/62
f 89/137/127 79/131/123 78/134/125 81/138/128
f 78/139/129 80/49/47 83/140/130 82/141/131
f 78/139/129 38/59/57 32/50/48 80/49/47
f 81/142/132 78/143/132 82/144/132 84/145/132
f 84/145/133 82/144/133 83/146/134 85/147/135
f 27/42/40 81/148/136 84/149/136 85/150/137
f 29/43/41 27/42/40 85/150/137 86/151/138
f 85/147/135 83/146/134 87/152/139 86/153/139
f 31/46/44 29/45/43 86/153/140 87/152/140
f 80/49/47 31/52/50 87/154/141 83/140/130
f 90/155/142 89/137/127 81/138/128 88/156/143
f 88/156/143 81/138/128 27/40/144 25/39/144
f 37/58/56 6/157/145 91/158/146 35/55/53
f 35/55/53 91/158/146 15/159/147 18/56/54
f 91/158/146 6/157/145 9/160/148 11/161/149
f 15/159/147 91/158/146 11/161/149 13/162/150
