# Blender 4.3.0
# www.blender.org
mtllib Wall 1.mtl
o Construcao_1.001
v -0.000001 -2.093632 -4.510437
v -0.000001 1.009083 -4.510437
v -0.000001 -5.584714 -4.510437
v -0.000001 -2.092618 -3.279206
v -0.000001 -5.584446 -3.380761
v -0.000001 1.006826 -3.542782
v 0.000000 -2.088609 0.930721
v 0.000001 -2.079855 3.466182
v 0.000000 1.080725 0.977112
v 0.000000 -5.584031 0.954353
v 0.000001 -5.583322 3.569747
v 0.000001 -5.583615 4.510437
v 0.000001 -2.080968 4.510437
v 0.000001 5.584714 4.510437
v 0.000001 5.584714 4.013939
v 0.000001 1.293209 4.510437
v 0.000001 1.266581 3.656723
v 0.000000 5.584715 1.039601
v -0.000001 5.584715 -4.161102
v -0.000001 5.584715 -4.510437
vn 1.0000 -0.0000 -0.0000
vt 0.781002 0.161869
vt 0.781001 0.092528
vt 0.798815 0.092528
vt 0.798815 0.161870
vt 0.781002 0.240571
vt 0.798815 0.240571
vt 0.906241 0.240571
vt 0.906241 0.161870
vt 0.906242 0.092528
vt 0.971053 0.240571
vt 0.971053 0.161870
vt 0.971053 0.092528
vt 0.988867 0.240571
vt 0.988867 0.161869
vt 0.988867 0.092528
vt 0.971053 0.007589
vt 0.988867 0.007589
vt 0.906241 0.007589
vt 0.798815 0.007590
vt 0.781001 0.007590
s 1
usemtl Material.020
f 1/1/1 2/2/1 6/3/1 4/4/1
f 3/5/1 1/1/1 4/4/1 5/6/1
f 10/7/1 5/6/1 4/4/1 7/8/1
f 7/8/1 4/4/1 6/3/1 9/9/1
f 11/10/1 10/7/1 7/8/1 8/11/1
f 8/11/1 7/8/1 9/9/1 17/12/1
f 12/13/1 11/10/1 8/11/1 13/14/1
f 16/15/1 17/12/1 15/16/1 14/17/1
f 13/14/1 8/11/1 17/12/1 16/15/1
f 17/12/1 9/9/1 18/18/1 15/16/1
f 9/9/1 6/3/1 19/19/1 18/18/1
f 2/2/1 20/20/1 19/19/1 6/3/1
