# Blender 4.3.0
# www.blender.org
mtllib Wood Plank.mtl
o Construcao_1.004
v -0.631974 -0.252264 2.085270
v -0.631974 0.226701 2.085270
v -0.234213 -0.252265 -2.085270
v -0.234213 0.256427 -2.085270
v 0.354452 -0.252264 2.018810
v 0.354452 0.157015 2.018810
v 0.631975 -0.252265 -1.937435
v 0.631975 0.202958 -1.937435
v -0.435608 -0.256410 0.832821
v -0.454599 -0.256411 -0.745060
v -0.454601 0.252548 -0.744961
v -0.435713 0.241002 0.833508
v 0.451700 -0.256118 -0.818611
v 0.517526 -0.256427 0.752922
v 0.517571 0.174222 0.752556
v 0.451702 0.192756 -0.818924
vn 0.0631 0.9979 0.0160
vn 0.0661 0.9977 0.0114
vn 0.0656 0.9978 0.0122
vn 0.1682 -0.0000 -0.9857
vn 0.0672 -0.0000 0.9977
vn 0.9873 0.0001 0.1591
vn 0.9982 -0.0000 0.0596
vn 0.9983 -0.0000 0.0588
vn 0.0701 0.9974 0.0146
vn 0.0704 0.9974 0.0159
vn 0.0719 0.9972 0.0227
vn 0.9991 -0.0000 0.0431
vn 0.9991 -0.0000 0.0424
vn 0.9918 -0.0000 0.1278
vn -0.9972 -0.0001 -0.0753
vn -0.9971 -0.0001 -0.0757
vn -0.9867 -0.0000 -0.1623
vn -0.9974 -0.0001 -0.0715
vn -0.9975 -0.0001 -0.0713
vn -0.9879 -0.0000 -0.1549
vt 0.306696 0.395616
vt 0.307710 0.415234
vt 0.277653 0.416751
vt 0.280635 0.396322
vt 0.318989 0.413961
vt 0.316790 0.394477
vt 0.208128 0.393023
vt 0.217018 0.395244
vt 0.213168 0.417097
vt 0.202764 0.414499
vt 0.306410 0.385477
vt 0.280680 0.385960
vt 0.245325 0.394628
vt 0.242144 0.416079
vt 0.245256 0.385042
vt 0.216712 0.386090
vt 0.277724 0.427977
vt 0.308172 0.426844
vt 0.242220 0.427408
vt 0.213419 0.427977
s 1
usemtl Material.020
f 8/1/1 4/2/1 11/3/2 16/4/3
f 3/5/4 4/2/4 8/1/4 7/6/4
f 5/7/5 6/8/5 2/9/5 1/10/5
f 7/11/6 8/1/6 16/4/7 13/12/8
f 15/13/9 12/14/10 2/9/11 6/8/11
f 14/15/12 15/13/13 6/8/14 5/16/14
f 10/17/15 11/3/16 4/2/17 3/18/17
f 12/14/10 15/13/9 16/4/3 11/3/2
f 15/13/13 14/15/12 13/12/8 16/4/7
f 11/3/16 10/17/15 9/19/18 12/14/19
f 1/20/20 2/9/20 12/14/19 9/19/18
