# Blender 4.3.0
# www.blender.org
mtllib Wood Base Floor 2.mtl
o Cube.003
v 4.079814 -1.733042 6.508765
v 3.065383 -1.727586 0.033569
v 4.079466 -1.733072 -6.448472
v 5.597572 1.739909 -10.185358
v 5.598246 1.739904 10.179968
v 6.524706 -1.739909 11.101169
v 3.144001 1.733720 -5.872491
v 2.103090 1.731922 0.033882
v -5.535468 1.739202 -9.359725
v 6.524027 -1.739905 -10.911569
v -0.898950 -1.728399 -15.625214
v -6.524704 1.731921 0.033975
v -5.536340 1.739214 9.427167
v -0.899471 -1.728384 15.625214
v -1.636943 1.739616 14.300671
v 3.144376 1.733724 5.933799
v -1.636444 1.739625 -14.124939
vn 0.8684 0.0895 -0.4877
vn 0.9193 0.1830 -0.3483
vn 0.9554 -0.0054 0.2952
vn 0.3102 0.0011 0.9507
vn 0.9149 -0.1552 0.3727
vn 0.9678 0.2518 -0.0001
vn 0.9175 0.1901 0.3493
vn 0.9564 -0.0019 -0.2921
vn 0.8593 0.0864 0.5041
vn 0.1922 0.1254 -0.9733
vn -0.3609 0.8211 -0.4421
vn -0.2801 0.7725 0.5699
vn 0.0001 1.0000 0.0007
vn 0.0002 1.0000 -0.0000
vn 0.8198 0.2893 -0.4943
vn 0.4726 0.3696 -0.8000
vn 0.8197 0.3023 0.4866
vn 0.4718 0.3715 0.7996
vn 0.0001 1.0000 -0.0007
vn -0.2797 0.7701 -0.5734
vn -0.2669 0.8846 -0.3824
vn -0.5124 0.6614 -0.5478
vn -0.4872 0.6332 0.6014
vn -0.2644 0.8822 0.3897
vt 0.520155 0.158891
vt 0.470139 0.183242
vt 0.462774 0.156576
vt 0.511163 0.132729
vt 0.384933 0.158906
vt 0.384933 0.190337
vt 0.299727 0.183242
vt 0.307092 0.156576
vt 0.249711 0.158891
vt 0.258703 0.132729
vt 0.384933 0.080187
vt 0.440988 0.080972
vt 0.607941 0.085036
vt 0.569437 0.019888
vt 0.594914 0.004831
vt 0.633418 0.069978
vt 0.161926 0.085035
vt 0.136449 0.069978
vt 0.174953 0.004831
vt 0.200429 0.019888
vt 0.328879 0.080972
vt 0.286062 0.060611
vt 0.483804 0.060611
s 1
usemtl Material.001
f 6/1/1 1/2/2 16/3/3 5/4/4
f 8/5/5 16/3/3 1/2/2 2/6/6
f 8/5/5 2/6/6 3/7/7 7/8/8
f 10/9/9 4/10/10 7/8/8 3/7/7
f 8/11/11 7/12/12 9/3/13 12/5/14
f 17/13/15 4/14/10 10/15/9 11/16/16
f 15/17/17 14/18/18 6/19/1 5/20/4
f 8/11/11 12/5/14 13/8/19 16/21/20
f 16/21/20 13/8/19 15/10/21 5/22/22
f 7/12/12 4/23/23 17/4/24 9/3/13
